<svg width="80" height="80" viewBox="0 0 80 80" fill="none" xmlns="http://www.w3.org/2000/svg">
<path d="M16.4536 65.7536L16.4537 65.7537L16.4633 65.7435C21.538 60.3761 29.5849 57.5 39.9 57.5C50.2184 57.5 58.2584 60.3776 63.13 65.7363L63.138 65.7451L63.1464 65.7536C63.3512 65.9583 63.3512 66.2417 63.1465 66.4464C63.1033 66.4896 63.0394 66.5307 62.9643 66.5608C62.887 66.5917 62.8252 66.6 62.8 66.6C62.7748 66.6 62.713 66.5917 62.6357 66.5608C62.563 66.5317 62.5008 66.4922 62.4578 66.4506C57.5304 61.2201 49.6777 58.5 39.8 58.5C29.9221 58.5 22.0693 61.2202 17.1419 66.4509C16.9375 66.6512 16.6568 66.6497 16.4536 66.4464C16.2488 66.2417 16.2488 65.9583 16.4536 65.7536ZM0.5 40C0.5 18.1761 18.1761 0.5 40 0.5C61.8239 0.5 79.5 18.1761 79.5 40C79.5 61.8239 61.8239 79.5 40 79.5C18.1761 79.5 0.5 61.8239 0.5 40ZM1.5 40C1.5 61.2761 18.7239 78.5 40 78.5C61.2761 78.5 78.5 61.2761 78.5 40C78.5 18.7239 61.2761 1.5 40 1.5C18.7239 1.5 1.5 18.7239 1.5 40ZM55.4 35C55.4 39.9951 53.8343 44.1153 51.1359 46.9823C48.4401 49.8466 44.5769 51.5 39.9 51.5C35.2742 51.5 31.4101 49.8473 28.7008 46.9815C25.9894 44.1134 24.4 39.9931 24.4 35C24.4 30.0049 25.9657 25.8847 28.6641 23.0177C31.3599 20.1534 35.2231 18.5 39.9 18.5C44.5769 18.5 48.4401 20.1534 51.1359 23.0177C53.8343 25.8847 55.4 30.0049 55.4 35ZM54.4 35C54.4 30.3498 52.9935 26.4692 50.4531 23.7464C47.9094 21.0201 44.2707 19.5 39.9 19.5C35.5293 19.5 31.8906 21.0201 29.3469 23.7464C26.8065 26.4692 25.4 30.3498 25.4 35C25.4 39.6502 26.8065 43.5308 29.3469 46.2536C31.8906 48.9799 35.5293 50.5 39.9 50.5C44.2707 50.5 47.9094 48.9799 50.4531 46.2536C52.9935 43.5308 54.4 39.6502 54.4 35Z" fill="#219653" stroke="url(#paint0_linear)"/>
<defs>
<linearGradient id="paint0_linear" x1="40" y1="0" x2="40" y2="80" gradientUnits="userSpaceOnUse">
<stop stop-color="#4B59F2"/>
<stop offset="1" stop-color="#C73F64"/>
</linearGradient>
</defs>
</svg>
