<svg width="70" height="70" viewBox="0 0 70 70" fill="none" xmlns="http://www.w3.org/2000/svg">
<path d="M4.32125 46.3361L4.32117 46.336C1.86072 43.6532 0.5 40.0732 0.5 36.2505C0.5 32.4279 1.86068 28.8491 4.32125 26.1649L3.95268 25.8271L4.32125 26.1649C4.57916 25.8836 4.97549 25.8835 5.2335 26.1646C5.51364 26.4712 5.51363 26.9826 5.23347 27.2891C3.03674 29.6844 1.83334 32.87 1.83334 36.2505C1.83334 39.6313 3.03694 42.8157 5.23377 45.2122C5.5147 45.5187 5.5147 46.0296 5.23377 46.3361C5.09972 46.4823 4.93418 46.5469 4.77751 46.5469C4.62084 46.5469 4.4553 46.4823 4.32125 46.3361Z" stroke="#B63958"/>
<path d="M9.23396 43.4401L9.23305 43.4391C5.5152 39.3846 5.51513 32.766 9.2331 28.7101C9.4911 28.4287 9.88762 28.4287 10.1456 28.7101C10.4266 29.0166 10.4266 29.5274 10.1457 29.8339C6.98599 33.2794 6.98608 38.8686 10.1456 42.3153C10.4266 42.6218 10.4266 43.1327 10.1456 43.4392C10.0116 43.5854 9.84603 43.65 9.68936 43.65C9.53151 43.65 9.36687 43.5859 9.23396 43.4401Z" stroke="#B63958"/>
<path d="M65.6788 46.336L65.6787 46.3361C65.5447 46.4823 65.3791 46.5469 65.2224 46.5469C65.0658 46.5469 64.9002 46.4823 64.7662 46.3361C64.4852 46.0296 64.4852 45.5187 64.7662 45.2122C66.963 42.8157 68.1666 39.6313 68.1666 36.2505C68.1666 32.8697 66.963 29.6853 64.7662 27.2888C64.4852 26.9824 64.4852 26.4714 64.7662 26.1649C65.0242 25.8835 65.4207 25.8835 65.6787 26.1649C68.1393 28.8491 69.5 32.4279 69.5 36.2505C69.5 40.0732 68.1392 43.6532 65.6788 46.336Z" stroke="#B63958"/>
<path d="M59.8545 28.7101L59.8549 28.7096C60.1114 28.4291 60.5088 28.4284 60.767 28.7101L60.7671 28.7102C64.4849 32.7647 64.485 39.3833 60.767 43.4392C60.633 43.5854 60.4674 43.65 60.3108 43.65C60.1541 43.65 59.9885 43.5854 59.8545 43.4392C59.5736 43.1327 59.5736 42.6218 59.8545 42.3153C63.0141 38.8699 63.014 33.2807 59.8545 29.834C59.5736 29.5275 59.5736 29.0166 59.8545 28.7101Z" stroke="#B63958"/>
<path d="M30.1956 63.4608C30.1437 63.4571 30.0922 63.4536 30.0407 63.4501C29.936 63.443 29.8314 63.4359 29.7243 63.4265C29.6052 63.4159 29.4837 63.4035 29.362 63.391C29.2631 63.3809 29.1641 63.3707 29.0663 63.3616L30.1956 63.4608ZM30.1956 63.4608C33.586 63.7307 36.7091 63.7319 40.096 63.4685L30.1956 63.4608ZM54.3625 25.4588V25.4617V36.9084C54.3625 44.9008 57.1673 51.9968 62.6873 57.9811L62.6876 57.9813C62.8742 58.1834 62.9501 58.4963 62.8653 58.7878L62.8652 58.7881C62.7802 59.0809 62.5646 59.2657 62.3391 59.3077L62.3381 59.3079L51.2664 61.3939L51.2663 61.3939C49.1951 61.7846 47.3157 62.0965 45.5477 62.3512L45.2803 62.3898L45.166 62.6345C43.2005 66.8428 39.3619 69.5 35.2135 69.5C31.0661 69.5 27.2286 66.8452 25.2621 62.6382L25.1477 62.3936L24.8804 62.3551C23.1042 62.0991 21.2154 61.7859 19.1336 61.3939L8.06119 59.308C7.83353 59.2649 7.61765 59.0786 7.53409 58.7893C7.44961 58.4955 7.5259 58.1829 7.71201 57.9806C12.993 52.2544 15.6666 45.1554 15.6666 36.9084V25.4555C15.7126 17.6307 20.7541 11.5973 25.7209 9.09982C26.8596 8.52747 28.0649 8.09733 29.3042 7.74276L29.6666 7.63905V7.26205V6.36352C29.6666 3.08898 32.0997 0.5 35 0.5C37.9003 0.5 40.3333 3.08898 40.3333 6.36352V7.14242V7.52802L40.7063 7.62601C42.0805 7.98704 43.4204 8.45845 44.6881 9.0893C49.1722 11.3254 54.4114 16.9566 54.3625 25.4588ZM38.4237 7.1033L39 7.19225V6.60915V6.36352C39 4.02416 37.2458 2.04541 35 2.04541C32.7541 2.04541 31 4.02416 31 6.36352V6.67279V7.26757L31.5859 7.16535C33.8371 6.77262 36.1518 6.75262 38.4237 7.1033ZM22.1556 27.2268V27.2268H22.1596H22.1596H22.1597H22.1597H22.1597H22.1597H22.1597H22.1598H22.1598H22.1598H22.1598H22.1598H22.1599H22.1599H22.1599H22.1599H22.1599H22.16H22.16H22.16H22.16H22.16H22.1601H22.1601H22.1601H22.1601H22.1601H22.1602H22.1602H22.1602H22.1602H22.1603H22.1603H22.1603H22.1603H22.1603H22.1604H22.1604H22.1604H22.1604H22.1604H22.1605H22.1605H22.1605H22.1605H22.1605H22.1606H22.1606H22.1606H22.1606H22.1606H22.1607H22.1607H22.1607H22.1607H22.1607H22.1608H22.1608H22.1608H22.1608H22.1608H22.1609H22.1609H22.1609H22.1609H22.161H22.161H22.161H22.161H22.161H22.1611H22.1611H22.1611H22.1611H22.1611H22.1612H22.1612H22.1612H22.1612H22.1612H22.1613H22.1613H22.1613H22.1613H22.1614H22.1614H22.1614H22.1614H22.1614H22.1614H22.1615H22.1615H22.1615H22.1615H22.1616H22.1616H22.1616H22.1616H22.1616H22.1617H22.1617H22.1617H22.1617H22.1617H22.1618H22.1618H22.1618H22.1618H22.1618H22.1619H22.1619H22.1619H22.1619H22.1619H22.162H22.162H22.162H22.162H22.162H22.1621H22.1621H22.1621H22.1621H22.1622H22.1622H22.1622H22.1622H22.1622H22.1623H22.1623H22.1623H22.1623H22.1623H22.1624H22.1624H22.1624H22.1624H22.1624H22.1625H22.1625H22.1625H22.1625H22.1625H22.1626H22.1626H22.1626H22.1626H22.1627H22.1627H22.1627H22.1627H22.1627H22.1627H22.1628H22.1628H22.1628H22.1628H22.1629H22.1629H22.1629H22.1629H22.1629H22.163H22.163H22.163H22.163H22.163H22.1631H22.1631H22.1631H22.1631H22.1631H22.1632H22.1632H22.1632H22.1632H22.1633H22.1633H22.1633H22.1633H22.1633H22.1633H22.1634H22.1634H22.1634H22.1634H22.1635H22.1635H22.1635H22.1635H22.1635H22.1636H22.1636H22.1636H22.1636H22.1636H22.1637H22.1637H22.1637H22.1637H22.1637H22.1638H22.1638H22.1638H22.1638H22.1638H22.1639H22.1639H22.1639H22.1639H22.1639H22.164H22.164H22.164H22.164H22.164H22.1641H22.1641H22.1641H22.1641H22.1642H22.1642H22.1642H22.1642H22.1642H22.1643H22.1643H22.1643H22.1643H22.1643H22.1644H22.1644H22.1644H22.1644H22.1644H22.1645H22.1645H22.1645H22.1645H22.1646H22.1646H22.1646H22.1646H22.1646H22.1646H22.1647H22.1647H22.1647H22.1647H22.1648H22.1648H22.1648H22.1648H22.1648H22.1649H22.1649H22.1649H22.1649H22.1649H22.165H22.165H22.165H22.165H22.165H22.1651H22.1651H22.1651H22.1651H22.1652H22.1652H22.1652H22.1652H22.1652H22.1652H22.1653H22.1653H22.1653H22.1653H22.1654H22.1654H22.1654H22.1654H22.1654H22.1655H22.1655H22.1655H22.1655H22.1655H22.1656H22.1656H22.1656H22.1656H22.1656H22.1657H22.1657H22.1657H22.1657H22.1657H22.1658H22.1658H22.1658H22.1658H22.1658H22.1659H22.1659H22.1659H22.1659H22.1659H22.166H22.166H22.166H22.166H22.1661H22.1661H22.1661H22.1661H22.1661H22.1662H22.1662H22.1662H22.1662H22.1662H22.1663H22.1663H22.1663H22.1663H22.1663H22.1664H22.1664H22.1664H22.1664H22.1665H22.1665H22.1665H22.1665H22.1665H22.1665H22.1666H22.1666C23.1211 27.2268 23.8282 26.4002 23.8344 25.465L23.8344 25.4646C23.8598 21.0468 27.1696 18.1814 29.1415 17.1905L29.1418 17.1903C32.8842 15.3059 37.5198 15.3097 41.2919 17.1907C42.1646 17.6279 43.1556 17.1865 43.5238 16.3099L43.5242 16.3088C43.8829 15.4493 43.5529 14.4023 42.7095 13.9824C38.049 11.6601 32.3474 11.6553 27.7149 13.9856C25.0573 15.3204 20.5365 19.2275 20.4999 25.4435L20.4999 25.444C20.4953 26.3809 21.1966 27.2192 22.1556 27.2268ZM43.1202 63.5052L43.7044 62.64L42.6641 62.7271L42.6214 62.7307L42.6131 62.7314L42.6049 62.7323C42.2479 62.7721 41.9009 62.8051 41.5487 62.8386C41.5007 62.8432 41.4525 62.8478 41.4041 62.8524L41.4018 62.8526C41.329 62.8599 41.2569 62.8673 41.1853 62.8746C41.0019 62.8934 40.8226 62.9117 40.6463 62.927C40.532 62.9364 40.4293 62.9435 40.3233 62.9508C40.2393 62.9566 40.1532 62.9626 40.0576 62.97L40.0572 62.97C36.6963 63.2314 33.5994 63.2301 30.2353 62.9624L30.2319 62.9622C30.1747 62.958 30.1207 62.9543 30.0681 62.9508C29.9665 62.9439 29.8704 62.9374 29.7679 62.9284C29.646 62.9176 29.5352 62.9062 29.4207 62.8944C29.3237 62.8844 29.2241 62.8741 29.1128 62.8637L29.112 62.8637C28.6693 62.823 28.2299 62.7814 27.7776 62.731L27.75 62.7279H27.7223H27.7211H26.7796L27.3069 63.5079C29.1596 66.2488 32.0688 67.9533 35.2123 67.9533C38.3569 67.9533 41.2674 66.2489 43.1202 63.5052Z" stroke="#B63958"/>
</svg>
