<svg width="72" height="72" viewBox="0 0 72 72" fill="none" xmlns="http://www.w3.org/2000/svg">
<path d="M70 20.5H70.5V20V11C70.5 8.52386 68.4761 6.5 66 6.5H59C58.8136 6.5 58.6972 6.44006 58.6286 6.37145C58.5599 6.30284 58.5 6.18638 58.5 6C58.5 5.81362 58.5599 5.69716 58.6286 5.62855C58.6972 5.55994 58.8136 5.5 59 5.5H66C69.0239 5.5 71.5 7.97614 71.5 11V21C71.5 21.1864 71.4401 21.3028 71.3714 21.3714C71.3028 21.4401 71.1864 21.5 71 21.5H1C0.813624 21.5 0.697164 21.4401 0.628553 21.3714C0.559943 21.3028 0.5 21.1864 0.5 21V11C0.5 7.97614 2.97614 5.5 6 5.5H13C13.1864 5.5 13.3028 5.55994 13.3714 5.62855C13.4401 5.69716 13.5 5.81362 13.5 6C13.5 6.18638 13.4401 6.30284 13.3714 6.37145C13.3028 6.44006 13.1864 6.5 13 6.5H6C3.52386 6.5 1.5 8.52386 1.5 11V20V20.5H2H70ZM49.5827 38.1754L50.5 39.5653V37.9V33C50.5 32.8136 50.5599 32.6972 50.6286 32.6286C50.6972 32.5599 50.8136 32.5 51 32.5C51.1864 32.5 51.3028 32.5599 51.3714 32.6286C51.4401 32.6972 51.5 32.8136 51.5 33V40C51.5 40.1864 51.4401 40.3028 51.3714 40.3714C51.3028 40.4401 51.1864 40.5 51 40.5H44C43.8136 40.5 43.6972 40.4401 43.6286 40.3714C43.5599 40.3028 43.5 40.1864 43.5 40C43.5 39.8136 43.5599 39.6972 43.6286 39.6286C43.6972 39.5599 43.8136 39.5 44 39.5H48.4H49.3171L48.8203 38.7291C45.8406 34.1055 41.595 31.6042 36.6113 31.5001C32.3875 31.3973 28.5516 32.8413 25.7464 35.6464C23.0465 38.3463 21.6 41.9763 21.6 46C21.6 46.1864 21.54 46.3028 21.4714 46.3714C21.4028 46.4401 21.2864 46.5 21.1 46.5C20.9136 46.5 20.7971 46.4401 20.7285 46.3714C20.6599 46.3028 20.6 46.1864 20.6 46C20.6 41.7202 22.1555 37.7551 25.0475 34.9595L25.0476 34.9595L25.0536 34.9536C28.05 31.9572 32.115 30.4026 36.5891 30.4999L36.5907 30.4999C41.8034 30.5964 46.3602 33.2929 49.5827 38.1754ZM22.4173 53.8246L21.5 52.4347V54.1V59C21.5 59.1864 21.4401 59.3028 21.3714 59.3714C21.3028 59.4401 21.1864 59.5 21 59.5C20.8136 59.5 20.6972 59.4401 20.6286 59.3714C20.5599 59.3028 20.5 59.1864 20.5 59V52C20.5 51.8136 20.5599 51.6972 20.6286 51.6286C20.6972 51.5599 20.8136 51.5 21 51.5H28C28.1864 51.5 28.3028 51.5599 28.3714 51.6286C28.4401 51.6972 28.5 51.8136 28.5 52C28.5 52.1864 28.4401 52.3028 28.3714 52.3714C28.3028 52.4401 28.1864 52.5 28 52.5H23.6H22.6829L23.1797 53.2709C26.1594 57.8945 30.405 60.3958 35.3887 60.4999C39.6125 60.6027 43.4484 59.1587 46.2536 56.3536C48.9535 53.6537 50.4 50.0237 50.4 46C50.4 45.8136 50.46 45.6972 50.5286 45.6286C50.5972 45.5599 50.7136 45.5 50.9 45.5C51.0864 45.5 51.2029 45.5599 51.2715 45.6286C51.3401 45.6972 51.4 45.8136 51.4 46C51.4 50.2798 49.8445 54.2449 46.9525 57.0405L46.9524 57.0405L46.9464 57.0464C44.0474 59.9455 40.078 61.5 35.8 61.5H35.4048C30.194 61.402 25.6389 58.7057 22.4173 53.8246ZM47 6.5H25C24.8136 6.5 24.6972 6.44006 24.6286 6.37145C24.5599 6.30284 24.5 6.18638 24.5 6C24.5 5.81362 24.5599 5.69716 24.6286 5.62855C24.6972 5.55994 24.8136 5.5 25 5.5H47C47.1864 5.5 47.3028 5.55994 47.3714 5.62855C47.4401 5.69716 47.5 5.81362 47.5 6C47.5 6.18638 47.4401 6.30284 47.3714 6.37145C47.3028 6.44006 47.1864 6.5 47 6.5ZM20.5 10C20.5 10.8239 19.8239 11.5 19 11.5C18.1761 11.5 17.5 10.8239 17.5 10V2C17.5 1.17614 18.1761 0.5 19 0.5C19.8239 0.5 20.5 1.17614 20.5 2V10ZM54.5 10C54.5 10.8239 53.8239 11.5 53 11.5C52.1761 11.5 51.5 10.8239 51.5 10V2C51.5 1.17614 52.1761 0.5 53 0.5C53.8239 0.5 54.5 1.17614 54.5 2V10ZM70.5 26C70.5 25.8136 70.5599 25.6972 70.6286 25.6286C70.6972 25.5599 70.8136 25.5 71 25.5C71.1864 25.5 71.3028 25.5599 71.3714 25.6286C71.4401 25.6972 71.5 25.8136 71.5 26V66C71.5 69.0239 69.0239 71.5 66 71.5H6C2.97614 71.5 0.5 69.0239 0.5 66V26C0.5 25.8136 0.559943 25.6972 0.628553 25.6286C0.697164 25.5599 0.813624 25.5 1 25.5C1.18638 25.5 1.30284 25.5599 1.37145 25.6286C1.44006 25.6972 1.5 25.8136 1.5 26V66C1.5 68.4761 3.52386 70.5 6 70.5H66C68.4761 70.5 70.5 68.4761 70.5 66V26Z" fill="#219653" stroke="url(#paint0_linear)"/>
<defs>
<linearGradient id="paint0_linear" x1="36" y1="0" x2="36" y2="72" gradientUnits="userSpaceOnUse">
<stop stop-color="#4B59F2"/>
<stop offset="1" stop-color="#C73F64"/>
</linearGradient>
</defs>
</svg>
