<svg width="90" height="64" viewBox="0 0 90 64" fill="none" xmlns="http://www.w3.org/2000/svg">
<mask id="path-1-inside-1" fill="white">
<path d="M37.5 8C30.1 8 24 14.1 24 21.5C24 28.9 30.1 35 37.5 35C44.9 35 51 28.9 51 21.5C51 14.1 44.9 8 37.5 8ZM37.5 33C31.2 33 26 27.8 26 21.5C26 15.2 31.2 10 37.5 10C43.8 10 49 15.2 49 21.5C49 27.8 43.8 33 37.5 33ZM18 7H9.10001C7.90001 7 7 8 7 9.2V14C7 14.6 7.4 15 8 15C8.6 15 9 14.6 9 14V9.2C9 9.1 9.10001 9 9.10001 9H18C18.6 9 19 8.6 19 8C19 7.4 18.5 7 18 7ZM18 34H9.10001C9.10001 34 9 33.9 9 33.8V29C9 28.4 8.6 28 8 28C7.4 28 7 28.4 7 29V33.8C7 35 7.90001 36 9.10001 36H18C18.6 36 19 35.6 19 35C19 34.4 18.5 34 18 34ZM67 28C66.4 28 66 28.4 66 29V33.8C66 33.9 65.9 34 65.9 34H57C56.4 34 56 34.4 56 35C56 35.6 56.4 36 57 36H65.9C67.1 36 68 35 68 33.8V29C68 28.4 67.6 28 67 28ZM86 21H82C81.4 21 81 21.4 81 22C81 22.6 81.4 23 82 23H86C87.1 23 88 23.9 88 25V60C88 61.1 87.1 62 86 62H19C17.9 62 17 61.1 17 60V50C17 49.4 16.6 49 16 49C15.4 49 15 49.4 15 50V60C15 62.2 16.8 64 19 64H86C88.2 64 90 62.2 90 60V25C90 22.8 88.2 21 86 21ZM71 56C71 56.6 71.4 57 72 57H80.9C82.1 57 83 56 83 54.8V50C83 49.4 82.6 49 82 49C81.4 49 81 49.4 81 50V54.8C81 54.9 80.9 55 80.9 55H72C71.5 55 71 55.4 71 56ZM65.9 7H57C56.4 7 56 7.4 56 8C56 8.6 56.4 9 57 9H65.9C65.9 9 66 9.1 66 9.2V14C66 14.6 66.4 15 67 15C67.6 15 68 14.6 68 14V9.2C68 8 67.1 7 65.9 7ZM82 36C82.6 36 83 35.6 83 35V29C83 28.4 82.6 28 82 28C81.4 28 81 28.4 81 29V35C81 35.6 81.4 36 82 36ZM75 39V4C75 1.8 73.2 0 71 0H4C1.8 0 0 1.8 0 4V39C0 41.2 1.8 43 4 43H71C73.2 43 75 41.2 75 39ZM2 39V4C2 2.9 2.9 2 4 2H71C72.1 2 73 2.9 73 4V39C73 40.1 72.1 41 71 41H4C2.9 41 2 40.1 2 39ZM23 49C22.4 49 22 49.4 22 50V54.8C22 56 22.9 57 24.1 57H33C33.6 57 34 56.6 34 56C34 55.4 33.6 55 33 55H24.1C24.1 55 24 54.9 24 54.8V50C24 49.4 23.6 49 23 49ZM61.8 49.3C59.6 52.2 56.1 54 52.5 54C48.9 54 45.4 52.3 43.2 49.3C42.9 48.9 42.2 48.8 41.8 49.1C41.4 49.4 41.3 50.1 41.6 50.5C44.2 53.9 48.2 56 52.5 56C56.7 56 60.8 54 63.4 50.5C63.7 50.1 63.6 49.4 63.2 49.1C62.7 48.8 62.1 48.9 61.8 49.3Z"/>
</mask>
<path d="M37.5 8C30.1 8 24 14.1 24 21.5C24 28.9 30.1 35 37.5 35C44.9 35 51 28.9 51 21.5C51 14.1 44.9 8 37.5 8ZM37.5 33C31.2 33 26 27.8 26 21.5C26 15.2 31.2 10 37.5 10C43.8 10 49 15.2 49 21.5C49 27.8 43.8 33 37.5 33ZM18 7H9.10001C7.90001 7 7 8 7 9.2V14C7 14.6 7.4 15 8 15C8.6 15 9 14.6 9 14V9.2C9 9.1 9.10001 9 9.10001 9H18C18.6 9 19 8.6 19 8C19 7.4 18.5 7 18 7ZM18 34H9.10001C9.10001 34 9 33.9 9 33.8V29C9 28.4 8.6 28 8 28C7.4 28 7 28.4 7 29V33.8C7 35 7.90001 36 9.10001 36H18C18.6 36 19 35.6 19 35C19 34.4 18.5 34 18 34ZM67 28C66.4 28 66 28.4 66 29V33.8C66 33.9 65.9 34 65.9 34H57C56.4 34 56 34.4 56 35C56 35.6 56.4 36 57 36H65.9C67.1 36 68 35 68 33.8V29C68 28.4 67.6 28 67 28ZM86 21H82C81.4 21 81 21.4 81 22C81 22.6 81.4 23 82 23H86C87.1 23 88 23.9 88 25V60C88 61.1 87.1 62 86 62H19C17.9 62 17 61.1 17 60V50C17 49.4 16.6 49 16 49C15.4 49 15 49.4 15 50V60C15 62.2 16.8 64 19 64H86C88.2 64 90 62.2 90 60V25C90 22.8 88.2 21 86 21ZM71 56C71 56.6 71.4 57 72 57H80.9C82.1 57 83 56 83 54.8V50C83 49.4 82.6 49 82 49C81.4 49 81 49.4 81 50V54.8C81 54.9 80.9 55 80.9 55H72C71.5 55 71 55.4 71 56ZM65.9 7H57C56.4 7 56 7.4 56 8C56 8.6 56.4 9 57 9H65.9C65.9 9 66 9.1 66 9.2V14C66 14.6 66.4 15 67 15C67.6 15 68 14.6 68 14V9.2C68 8 67.1 7 65.9 7ZM82 36C82.6 36 83 35.6 83 35V29C83 28.4 82.6 28 82 28C81.4 28 81 28.4 81 29V35C81 35.6 81.4 36 82 36ZM75 39V4C75 1.8 73.2 0 71 0H4C1.8 0 0 1.8 0 4V39C0 41.2 1.8 43 4 43H71C73.2 43 75 41.2 75 39ZM2 39V4C2 2.9 2.9 2 4 2H71C72.1 2 73 2.9 73 4V39C73 40.1 72.1 41 71 41H4C2.9 41 2 40.1 2 39ZM23 49C22.4 49 22 49.4 22 50V54.8C22 56 22.9 57 24.1 57H33C33.6 57 34 56.6 34 56C34 55.4 33.6 55 33 55H24.1C24.1 55 24 54.9 24 54.8V50C24 49.4 23.6 49 23 49ZM61.8 49.3C59.6 52.2 56.1 54 52.5 54C48.9 54 45.4 52.3 43.2 49.3C42.9 48.9 42.2 48.8 41.8 49.1C41.4 49.4 41.3 50.1 41.6 50.5C44.2 53.9 48.2 56 52.5 56C56.7 56 60.8 54 63.4 50.5C63.7 50.1 63.6 49.4 63.2 49.1C62.7 48.8 62.1 48.9 61.8 49.3Z" fill="#219653" stroke="url(#paint0_linear)" stroke-width="2" mask="url(#path-1-inside-1)"/>
<defs>
<linearGradient id="paint0_linear" x1="45" y1="0" x2="45" y2="64" gradientUnits="userSpaceOnUse">
<stop stop-color="#4B59F2"/>
<stop offset="1" stop-color="#C73F64"/>
</linearGradient>
</defs>
</svg>
