<svg width="200" height="200" viewBox="0 0 200 200" fill="none" xmlns="http://www.w3.org/2000/svg">
<path opacity="0.3" d="M67.4184 90.3289H42.2286V154.908H67.4184V90.3289Z" stroke="url(#paint0_linear)"/>
<path opacity="0.3" d="M107.453 68.031H82.2629V154.941H107.453V68.031Z" stroke="url(#paint1_linear)"/>
<path opacity="0.3" d="M147.454 25H122.264V154.941H147.454V25Z" stroke="url(#paint2_linear)"/>
<path fill-rule="evenodd" clip-rule="evenodd" d="M36.5361 172.487C35.9636 172.487 35.3911 172.226 34.9869 171.779C34.5828 171.332 34.347 170.698 34.347 170.064C34.347 169.43 34.5828 168.796 34.9869 168.349L98.907 97.5867C99.3111 97.1394 99.8836 96.8784 100.456 96.8784C101.062 96.8784 101.635 97.1766 102.039 97.624L106.687 102.993L159.998 43.9745C160.402 43.5271 160.975 43.2661 161.547 43.2661C162.12 43.2661 162.692 43.5271 163.096 43.9745C163.501 44.4219 163.736 45.0557 163.736 45.6895C163.736 46.3233 163.501 46.9571 163.096 47.4045L108.202 108.175C107.798 108.622 107.259 108.883 106.687 108.883H106.619C106.08 108.883 105.508 108.622 105.104 108.138L100.422 102.769L38.0853 171.742C37.6811 172.226 37.1086 172.487 36.5361 172.487Z" fill="url(#paint3_linear)"/>
<path d="M161.777 44.7616C161.979 44.7616 162.215 44.8363 162.384 45.0229C162.721 45.3963 162.721 45.9936 162.384 46.3297L107.392 107.186C107.223 107.373 107.054 107.447 106.818 107.447H106.784C106.548 107.447 106.346 107.335 106.177 107.149L100.577 100.652L37.1497 170.88C36.981 171.066 36.7786 171.141 36.5425 171.141C36.3063 171.141 36.1039 171.066 35.9352 170.88C35.5978 170.506 35.5978 169.909 35.9352 169.573L99.9693 98.7108C100.138 98.5241 100.34 98.4495 100.577 98.4495C100.813 98.4495 101.015 98.5615 101.184 98.7481L106.784 105.244L161.169 45.0229C161.338 44.8363 161.541 44.7616 161.777 44.7616ZM161.777 41.7748C160.832 41.7748 159.955 42.1855 159.28 42.9322L106.818 100.951L103.107 96.6574C102.466 95.9107 101.521 95.4627 100.577 95.4627H100.543C99.5982 95.4627 98.721 95.8733 98.0463 96.62L34.0459 167.445C33.3711 168.191 33 169.162 33 170.208C33 171.253 33.3711 172.224 34.0459 172.97C34.7206 173.717 35.5978 174.128 36.5425 174.128C37.4871 174.128 38.3643 173.717 39.039 172.97L100.509 104.946L104.22 109.239C104.861 109.986 105.772 110.434 106.717 110.434C106.751 110.434 106.784 110.434 106.818 110.434C107.763 110.434 108.64 110.023 109.315 109.277L164.307 48.4204C164.982 47.6737 165.353 46.703 165.353 45.6576C165.353 44.6122 164.982 43.6415 164.307 42.8948C163.599 42.1855 162.721 41.7748 161.777 41.7748Z" fill="white" stroke="white" stroke-width="0.5"/>
<path fill-rule="evenodd" clip-rule="evenodd" d="M163.141 52.8292L167.619 39.5939L154.384 44.0723L163.141 52.8292Z" fill="url(#paint4_linear)"/>
<defs>
<linearGradient id="paint0_linear" x1="42.2286" y1="90.3289" x2="85.9553" y2="107.385" gradientUnits="userSpaceOnUse">
<stop stop-color="#FF1453"/>
<stop offset="1" stop-color="#9327F5"/>
</linearGradient>
<linearGradient id="paint1_linear" x1="82.2629" y1="68.031" x2="128.738" y2="81.5013" gradientUnits="userSpaceOnUse">
<stop stop-color="#FF1453"/>
<stop offset="1" stop-color="#9327F5"/>
</linearGradient>
<linearGradient id="paint2_linear" x1="122.264" y1="25" x2="170.819" y2="34.4126" gradientUnits="userSpaceOnUse">
<stop stop-color="#FF1453"/>
<stop offset="1" stop-color="#9327F5"/>
</linearGradient>
<linearGradient id="paint3_linear" x1="34.347" y1="43.2661" x2="163.568" y2="172.655" gradientUnits="userSpaceOnUse">
<stop stop-color="#FF1453"/>
<stop offset="1" stop-color="#9327F5"/>
</linearGradient>
<linearGradient id="paint4_linear" x1="154.384" y1="39.5939" x2="167.619" y2="52.8292" gradientUnits="userSpaceOnUse">
<stop stop-color="#FF1453"/>
<stop offset="1" stop-color="#9327F5"/>
</linearGradient>
</defs>
</svg>
