<svg width="70" height="70" viewBox="0 0 70 70" fill="none" xmlns="http://www.w3.org/2000/svg">
<path d="M66.417 27.6545L61.5037 26.821C60.9919 25.1686 60.3339 23.5747 59.5296 22.0539L62.4249 18.0034C63.6532 16.2779 63.4631 13.9236 61.957 12.4321L57.5994 8.0745C56.7805 7.25562 55.6984 6.80231 54.5432 6.80231C53.6366 6.80231 52.7738 7.08014 52.0427 7.60656L47.9776 10.5019C46.3983 9.66839 44.7459 8.98111 43.035 8.46931L42.2162 3.61453C41.8652 1.52346 40.0666 0.00268555 37.9463 0.00268555H31.7901C29.6698 0.00268555 27.8711 1.52346 27.5202 3.61453L26.6721 8.5863C25.0343 9.09809 23.4404 9.77075 21.9196 10.5896L17.8984 7.6943C17.1672 7.16788 16.2898 6.89005 15.3832 6.89005C14.228 6.89005 13.1313 7.34335 12.3271 8.16223L7.95483 12.5198C6.4633 14.0114 6.25858 16.3656 7.4869 18.0911L10.4115 22.2002C9.60721 23.7356 8.9638 25.3295 8.46663 26.9818L3.61184 27.8007C1.52078 28.1517 0 29.9503 0 32.0706V38.2268C0 40.3471 1.52078 42.1457 3.61184 42.4967L8.58361 43.3448C9.09541 44.9826 9.76806 46.5764 10.5869 48.0972L7.70624 52.1039C6.47792 53.8294 6.66802 56.1837 8.17417 57.6752L12.5318 62.0328C13.3507 62.8517 14.4327 63.305 15.588 63.305C16.4946 63.305 17.3573 63.0271 18.0885 62.5007L22.1975 59.5762C23.6744 60.3512 25.2244 60.9799 26.8183 61.4771L27.6372 66.3904C27.9881 68.4815 29.7867 70.0022 31.907 70.0022H38.0779C40.1982 70.0022 41.9968 68.4815 42.3478 66.3904L43.1813 61.4771C44.8336 60.9653 46.4275 60.3073 47.9483 59.503L51.9988 62.3984C52.73 62.9248 53.6073 63.2026 54.514 63.2026C55.6692 63.2026 56.7513 62.7493 57.5701 61.9304L61.9277 57.5728C63.4193 56.0813 63.624 53.727 62.3957 52.0015L59.5004 47.9364C60.3046 46.401 60.9773 44.8071 61.4744 43.1693L66.3877 42.3504C68.4788 41.9995 69.9996 40.2009 69.9996 38.0806V31.9244C70.0288 29.804 68.508 28.0054 66.417 27.6545ZM66.0806 38.0806C66.0806 38.2707 65.949 38.4315 65.7589 38.4608L59.6173 39.4844C58.8423 39.616 58.2282 40.1863 58.0381 40.932C57.4824 43.0816 56.6343 45.1434 55.4937 47.059C55.0989 47.7316 55.1281 48.5652 55.5814 49.2086L59.1933 54.2973C59.2956 54.4435 59.281 54.6629 59.1494 54.7945L54.7918 59.1521C54.6894 59.2545 54.5871 59.2691 54.514 59.2691C54.4262 59.2691 54.3531 59.2398 54.2946 59.196L49.2205 55.5841C48.5917 55.1308 47.7436 55.1016 47.0709 55.4964C45.1553 56.637 43.0935 57.4851 40.944 58.0408C40.1836 58.2309 39.6133 58.8596 39.4963 59.62L38.4581 65.7616C38.4288 65.9517 38.268 66.0833 38.0779 66.0833H31.9217C31.7316 66.0833 31.5707 65.9517 31.5415 65.7616L30.5179 59.62C30.3863 58.845 29.816 58.2309 29.0702 58.0408C26.9791 57.4997 24.9612 56.6662 23.0749 55.5841C22.7678 55.4086 22.4168 55.3209 22.0805 55.3209C21.6857 55.3209 21.2762 55.4379 20.9399 55.6865L15.8219 59.3276C15.7488 59.3714 15.6757 59.4007 15.6026 59.4007C15.5441 59.4007 15.4271 59.3861 15.3247 59.2837L10.9671 54.9261C10.8355 54.7945 10.8209 54.5898 10.9233 54.4289L14.5205 49.384C14.9738 48.7406 15.003 47.8925 14.6082 47.2198C13.4676 45.3189 12.5903 43.2571 12.0346 41.1075C11.8299 40.3617 11.2157 39.7914 10.4553 39.6598L4.26987 38.607C4.07977 38.5778 3.94817 38.4169 3.94817 38.2268V32.0706C3.94817 31.8805 4.07977 31.7196 4.26987 31.6904L10.3676 30.6668C11.1426 30.5352 11.7714 29.9649 11.9615 29.2045C12.5025 27.0549 13.336 24.9785 14.462 23.0629C14.8568 22.3903 14.8129 21.5568 14.3596 20.928L10.7185 15.81C10.6162 15.6638 10.6308 15.4444 10.7624 15.3128L15.12 10.9552C15.2224 10.8528 15.3247 10.8382 15.3979 10.8382C15.4856 10.8382 15.5587 10.8675 15.6172 10.9113L20.6621 14.5085C21.3055 14.9619 22.1536 14.9911 22.8263 14.5963C24.7272 13.4557 26.7891 12.5783 28.9386 12.0227C29.6844 11.8179 30.2547 11.2038 30.3863 10.4434L31.4391 4.25793C31.4684 4.06784 31.6292 3.93623 31.8193 3.93623H37.9755C38.1656 3.93623 38.3265 4.06784 38.3557 4.25793L39.3793 10.3557C39.5109 11.1307 40.0812 11.7595 40.8416 11.9495C43.0497 12.5052 45.1553 13.368 47.1148 14.5232C47.7875 14.918 48.621 14.8887 49.2644 14.4354L54.3092 10.809C54.3824 10.7651 54.4555 10.7359 54.5286 10.7359C54.5871 10.7359 54.7041 10.7505 54.8064 10.8528L59.164 15.2104C59.2956 15.342 59.3103 15.5468 59.2079 15.7076L55.5961 20.7817C55.1427 21.4105 55.1135 22.2587 55.5083 22.9313C56.6489 24.8469 57.497 26.9087 58.0527 29.0583C58.2428 29.8187 58.8716 30.389 59.632 30.5059L65.7736 31.5442C65.9637 31.5734 66.0953 31.7343 66.0953 31.9244V38.0806H66.0806Z" fill="#B63958"/>
<path d="M35.0079 19.887C26.6729 19.887 19.9025 26.6573 19.9025 34.9924C19.9025 43.3274 26.6729 50.0978 35.0079 50.0978C43.3429 50.0978 50.1133 43.3274 50.1133 34.9924C50.1133 26.6573 43.3429 19.887 35.0079 19.887ZM35.0079 46.1496C28.8517 46.1496 23.8507 41.1486 23.8507 34.9924C23.8507 28.8361 28.8517 23.8351 35.0079 23.8351C41.1641 23.8351 46.1652 28.8361 46.1652 34.9924C46.1652 41.1486 41.1641 46.1496 35.0079 46.1496Z" fill="#B63958"/>
</svg>
