<svg width="80" height="80" viewBox="0 0 80 80" fill="none" xmlns="http://www.w3.org/2000/svg">
<path d="M54.8522 44.5549L54.8536 44.5536C54.924 44.4831 54.9746 44.4501 55.0156 44.4319C55.0543 44.4147 55.1084 44.4 55.2 44.4C55.2397 44.4 55.3101 44.4119 55.452 44.4403L55.4713 44.4442C55.5186 44.4537 55.5768 44.4654 55.6398 44.4756C55.7441 44.6615 55.7129 44.88 55.5465 45.0464L40.4326 60.1604C40.4152 60.1687 40.3988 60.1776 40.3834 60.1869C40.3762 60.1912 40.3693 60.1956 40.3625 60.2H40.2929L40.1929 60.3H40.0929L39.9929 60.4H39.7071L39.6535 60.3464L39.6535 60.3464L24.4535 45.1464C24.2488 44.9417 24.2488 44.6583 24.4535 44.4536C24.4966 44.4104 24.5605 44.3693 24.6357 44.3392C24.713 44.3083 24.7748 44.3 24.8 44.3C24.8252 44.3 24.887 44.3083 24.9643 44.3392C25.0394 44.3693 25.1033 44.4104 25.1464 44.4536L38.6464 57.9536L39.5 58.8071V57.6V20.8C39.5 20.6136 39.5599 20.4972 39.6286 20.4286C39.6972 20.3599 39.8136 20.3 40 20.3C40.1864 20.3 40.3028 20.3599 40.3714 20.4286C40.4401 20.4972 40.5 20.6136 40.5 20.8V57.6V58.8008L41.3522 57.9549L54.8522 44.5549ZM40.2427 60.3C40.2433 60.2995 40.244 60.2988 40.2448 60.2981C40.2441 60.2988 40.2434 60.2995 40.2428 60.3H40.2427ZM39.7536 60.4464L39.7535 60.4464C39.7535 60.4464 39.7536 60.4464 39.7536 60.4464ZM0.5 40C0.5 18.1761 18.1761 0.5 40 0.5C61.8239 0.5 79.5 18.1761 79.5 40C79.5 61.8239 61.8239 79.5 40 79.5C18.1761 79.5 0.5 61.8239 0.5 40ZM1.5 40C1.5 61.2761 18.7239 78.5 40 78.5C61.2761 78.5 78.5 61.2761 78.5 40C78.5 18.7239 61.2761 1.5 40 1.5C18.7239 1.5 1.5 18.7239 1.5 40Z" fill="url(#paint0_linear)" stroke="url(#paint1_linear)"/>
<defs>
<linearGradient id="paint0_linear" x1="-660" y1="80" x2="-660" y2="0" gradientUnits="userSpaceOnUse">
<stop stop-color="#219653"/>
<stop offset="1" stop-color="#0080D9"/>
</linearGradient>
<linearGradient id="paint1_linear" x1="40" y1="0" x2="40" y2="80" gradientUnits="userSpaceOnUse">
<stop stop-color="#4B59F2"/>
<stop offset="1" stop-color="#C73F64"/>
</linearGradient>
</defs>
</svg>
