<svg width="16" height="16" viewBox="0 0 16 16" fill="none" xmlns="http://www.w3.org/2000/svg">
<path fill-rule="evenodd" clip-rule="evenodd" d="M9.33317 3.99995C9.33317 4.34133 9.20488 4.65274 8.99387 4.8886C8.74972 5.16152 8.39484 5.33328 7.99984 5.33328C7.605 5.33328 7.25025 5.16166 7.00611 4.88894C6.79492 4.65304 6.6665 4.34149 6.6665 3.99995C6.6665 3.26357 7.26346 2.66662 7.99984 2.66662C8.73622 2.66662 9.33317 3.26357 9.33317 3.99995ZM8 0C3.58899 0 0 3.58899 0 8C0 12.411 3.58899 16 8 16C12.411 16 16 12.411 16 8C16 3.58899 12.411 0 8 0ZM7.99988 6.2222C7.2635 6.2222 6.66654 6.81915 6.66654 7.55553V11.1111C6.66654 11.8475 7.2635 12.4444 7.99988 12.4444C8.73625 12.4444 9.33321 11.8475 9.33321 11.1111V7.55553C9.33321 6.81915 8.73625 6.2222 7.99988 6.2222Z" fill="#828282" fill-opacity="0.7"/>
</svg>
