<svg width="80" height="80" viewBox="0 0 80 80" fill="none" xmlns="http://www.w3.org/2000/svg">
<mask id="path-1-inside-1" fill="white">
<path d="M40 0C17.9 0 0 17.9 0 40C0 62.1 17.9 80 40 80C62.1 80 80 62.1 80 40C80 17.9 62.1 0 40 0ZM40 78C19 78 2 61 2 40C2 19 19 2 40 2C61 2 78 19 78 40C78 61 61 78 40 78ZM66.1 23.1C65.7 23.5 65.7 24 66 24.4C66.1 24.5 66.1 24.6 66.2 24.6C66.8 25.1 67.3 25.4 67.9 25.4C68.3 25.4 68.7 25.3 69 25C69.1 24.9 69.2 24.9 69.2 24.8H69.4C69.5 24.8 69.7 24.7 69.9 24.8L70.8 24.9C71.3 25 71.8 24.6 71.9 24.1C72 23.6 71.6 23.1 71.1 23L70.7 22.9L70.8 22.6C70.9 22.1 70.6 21.5 70.1 21.4C69.6 21.3 69 21.6 68.9 22.1L68.7 22.6C68.7 22.8 68.6 23 68.4 23.2L68.3 23.3H68C67.9 23.3 67.7 23.3 67.4 23C67 22.8 66.4 22.8 66.1 23.1ZM61.7 22.7C61.9 22.7 62 22.7 62.2 22.6C62.6 22.4 63.1 22.1 63.6 22C63.7 22 63.9 21.9 64 21.9C64.1 21.9 64.2 21.9 64.3 21.8C64.4 21.9 64.4 21.9 64.5 21.9C64.6 21.9 64.7 22 64.7 22.1C65 22.4 65.5 22.5 65.9 22.3C66.3 22.1 66.5 21.6 66.4 21.1C66.2 20.4 65.5 20.2 65.3 20.1C65.1 20 64.9 20 64.7 20.1C64.6 20 64.4 19.9 64.2 19.8C64.1 19.8 64 19.8 63.9 19.7C63.1 19.5 62.4 19.8 61.2 20.8C60.8 21.1 60.7 21.7 61 22.1C61.1 22.6 61.4 22.7 61.7 22.7ZM70.5 56.3C70 56 69.4 56.2 69.1 56.7L69 56.9C68.7 57.4 68.5 57.8 68.2 58.3C67.9 57.9 67.8 57.4 67.9 56.9C68 55.7 67.5 54.8 66.9 53.7L66.3 52.5C65.5 50.8 65.6 47.9 65.9 46.4C66.1 45.4 66 45 65.4 44.3C65.2 44 64.9 43.7 64.6 43.2C64 42.2 64.3 41.8 64.9 41.2L65.3 40.8C65.6 40.4 65.6 39.8 65.2 39.5C64.7 39 63.4 38.5 62.3 38.5C62 38.5 61.7 38.5 61.4 38.6C61 38.8 60.3 38.9 59.6 38.9C58.6 38.9 57.1 38.7 56.2 38.1C55 37.3 54 34.7 53.5 33.2C53.2 32.1 53.7 30.4 54.1 29L54.4 28.1C54.6 27.3 55.2 27 55.8 26.7C56.3 26.4 56.7 26.2 57 25.7C57.4 24.9 57.7 24.5 58.2 24.4C58.6 24.3 58.9 23.8 58.9 23.4C58.9 22.9 58.5 22.6 58.1 22.5C57.9 22.5 57.7 22.4 57.5 22.3C56.8 22 56.6 21.5 57.3 19.7C57.4 19.4 57.5 19.2 57.5 19C57.6 18.6 58 18.4 59.1 18.3H59.3C59.7 18.3 60 18.1 60.1 17.7C60.3 17.4 60.2 17 60 16.7C59.5 16 58.6 15.5 57.8 15.2C56.9 14.8 56.8 14.1 56.9 13.8C57 13.6 57.1 13.4 57.4 13.4C57.7 13.4 57.9 13.4 58.1 13.2L59.6 12C60 11.7 60.1 11 59.8 10.6C59.5 10.2 58.8 10.1 58.4 10.4C57.8 10.9 57.4 11.2 57.2 11.4C56.1 11.5 55.2 12.2 55 13.3C54.8 14.4 55.2 15.9 56.7 16.8C56.2 17.1 55.7 17.6 55.5 18.4C55.5 18.6 55.4 18.8 55.3 19C55 19.9 54.1 22.3 55.9 23.6C55.6 23.9 55.4 24.3 55.3 24.7C55.2 24.8 55 24.9 54.9 25C54.2 25.4 53 26.1 52.6 27.7C52.5 28 52.5 28.2 52.3 28.6C51.8 30.2 51.3 32.1 51.7 33.8C51.9 34.6 53 38.5 55.2 39.9C56.7 40.9 59 41 59.7 41C60.7 41 61.6 40.9 62.2 40.6H62.4C62.6 40.6 62.8 40.6 63 40.7C62.5 41.5 62 42.8 63.1 44.4C63.5 45 63.8 45.4 64 45.6C64.1 45.7 64.1 45.8 64.2 45.8V46C63.8 47.6 63.6 51 64.7 53.3C64.9 53.8 65.2 54.2 65.4 54.7C65.9 55.6 66.2 56.2 66.2 56.8C66.1 57.9 66.4 58.8 66.9 59.6L67.8 60.7C68 61 68.3 61.1 68.6 61.1C68.9 61.1 69.2 60.9 69.4 60.6L70.2 59.4C70.5 58.9 70.8 58.4 71.1 58L71.2 57.8C71.2 57.1 71 56.5 70.5 56.3ZM42.2 40.3C41.5 40.2 41.1 40.1 40.6 39.4C39.5 37.8 38 37.1 36.8 36.7C36.8 36.7 36.8 36.6 36.7 36.6C36.4 36 35.8 34.8 34.1 34.3C33.8 34.2 33.6 34.1 33.4 34.1C32.5 33.8 31.7 33.5 30.8 33.5C30.2 33.5 29.6 33.6 29 33.8C28.8 33.9 28.6 34 28.3 34.1C27.9 34.3 27.4 34.5 27.3 34.5C27.2 34.5 27.2 34.4 27.1 34.4C27.1 33.6 26.8 33.1 26.5 32.8C26.3 32.6 25.9 32.2 25.3 32C25.3 31.5 25.1 31 24.9 30.6C24.1 29.2 22.2 28.7 20.7 29.6V29.5C20.6 28.5 20.7 27.8 20.9 27.5C22.1 27.6 23.3 27.1 24.2 26.7C24.3 26.7 24.3 26.7 24.4 26.6C24.5 26.7 24.5 26.9 24.6 27C25.2 28.3 26.2 30.3 28.2 30.3H28.6C31.3 29.9 31 27 30.9 25.9C30.9 25.7 30.8 25.2 30.8 24.9C31.6 23.6 31.7 22.5 31.7 21.6V21.5C31.8 21.3 32.3 20.8 32.5 20.7H32.6C32.8 20.7 33.1 20.7 33.3 20.8C33.7 20.9 34.1 20.9 34.5 20.9C35.3 20.9 36.1 20.7 36.7 20.2C37.2 19.8 37.5 19.4 37.7 18.9H38.3C39.9 18.8 40.6 18.1 41 17.5C41.7 16.2 41 14.9 40.6 14.2V14.1C40.6 13.6 40.8 12 39.2 11.1C38.9 10.9 38.8 10.8 38.7 10.8C38.5 9 36.6 7.5 34.8 7.7C34.4 7.2 33.8 6.6 32.8 6.4C31.5 6.1 30.3 6.5 29.5 7.4C28.8 8.2 28.6 9.3 28.7 10.3C28.7 10.3 28.7 10.4 28.6 10.5C28.5 10.6 28.5 10.6 28.4 10.6C27.5 10.5 27.4 10.5 26.5 9.7L26.4 9.6C26.2 9.4 25.9 9.2 25.8 9.1L25.1 8.3C24.7 7.9 24.1 7.8 23.7 8.2C23.3 8.6 23.2 9.2 23.6 9.6L24.3 10.4C24.6 10.7 24.9 11 25.2 11.2L25.3 11.3C26.3 12.1 26.8 12.5 28.4 12.6C29.1 12.6 29.7 12.3 30.2 11.8C30.6 11.3 30.8 10.6 30.8 10.1C30.7 9.5 30.8 9 31.1 8.7C31.4 8.3 31.9 8.2 32.5 8.3C33 8.4 33.2 8.7 33.5 9.2C33.7 9.7 34.3 9.9 34.7 9.7C35.6 9.4 36.7 10.2 36.8 11C36.9 11.9 37.4 12.2 38.3 12.7C38.7 12.9 38.8 13.3 38.7 13.9C38.7 14.2 38.6 14.6 38.8 15H39C39.3 15.6 39.6 16.1 39.4 16.4C39.2 16.7 38.8 16.8 38.4 16.8H38.3C38 16.8 37.7 16.7 37.5 16.6C37.2 16.4 36.7 16.4 36.4 16.6C36.1 16.8 35.9 17.2 36 17.6V17.7C36 17.9 35.9 18.2 35.6 18.4C35.1 18.8 34.4 18.7 33.6 18.6C33.2 18.5 32.7 18.5 32.3 18.5C31.2 18.6 29.8 20.1 29.8 21V21.2C29.7 22 29.7 22.8 29.1 23.8C29.1 23.8 29.1 23.9 29 23.9C28.8 24.3 28.8 24.8 28.9 25.9C29.1 27.7 28.9 28.1 28.3 28.1H28.2C27.5 28.1 27 27.2 26.4 25.9C26.1 25.3 25.9 24.9 25.7 24.6C25.5 24.3 25.1 24.2 24.8 24.2C24.5 24.2 24.1 24.4 23.5 24.6C22.7 24.9 21.9 25.3 21 25.2C20.4 25.1 20 25.3 19.6 25.7C18.7 26.7 18.8 28.6 18.8 29.4C18.9 31.2 19.9 31.5 20.5 31.5C20.9 31.5 21.3 31.4 21.7 31.2C22.3 30.9 23 31 23.3 31.5C23.5 31.8 23.5 32.1 23.4 32.4C23.3 32.7 23.4 33.1 23.6 33.3C23.8 33.6 24.2 33.7 24.5 33.7C24.8 33.7 25 33.8 25.1 33.9C25.2 34.1 25.2 34.3 25.2 34.7C25.1 35 25.2 35.4 25.5 35.6C25.7 35.8 25.9 35.9 26.7 36.2C27.5 36.5 28.2 36.2 29.2 35.8L29.8 35.5C30.7 35.1 31.6 35.3 32.8 35.8C33 35.9 33.3 36 33.6 36C34.5 36.3 34.8 36.8 35 37.3C35.2 37.7 35.4 38.1 35.9 38.3C37 38.7 38.1 39.2 39 40.4C39.9 41.7 41 42 42 42.1C43.2 42.2 45 43 45.6 44.1C46.2 45.4 44.8 46.7 44.2 47.3C43.6 47.7 43.7 48.5 43.8 49.3C43.9 49.9 44 50.6 43.7 51.2C43.2 52.6 42.6 52.7 41.5 52.9C40.6 53.1 40.3 54.1 39.8 55.7L39.7 55.9C39.3 57.3 38.8 57.9 37.7 58.3C37.4 58.4 37.1 58.7 37.1 59.1V59.5C37.1 59.9 37.1 60.3 36.8 60.7C36.5 61 36.2 61.3 35.7 61.6C35 62.1 34.2 62.7 33.9 63.5C33.7 64 33.8 64.6 33.9 65.2C34 66 34.1 66.6 33.6 67.2C33.2 67.7 33.3 68.4 33.4 69C33.6 69.9 33.5 70.3 33.1 70.5C32.7 70.7 32 70.5 31.3 69.8C30.7 69.2 30.1 68.2 30.2 67.5V66.9C30.3 65.8 30.4 64.4 30.1 63.3C29.8 61.9 29.8 60.5 30.1 59.3C30.4 58.2 30.3 56 30.1 54.4C30 53.7 30.1 53 30.2 52.3C30.3 51.5 30.4 50.8 30.1 50.2C29.9 49.7 29.4 49.3 28.9 48.8C28.3 48.3 27.6 47.7 26.9 46.7C25.7 44.9 25.4 43 26.1 41.5C26.3 41.1 26.5 40.7 26.7 40.4C27 39.9 27.3 39.5 27.2 38.8C27.2 38.3 26.7 37.9 26.2 37.9H25.9C25.6 37.9 25.2 37.9 24.8 37.7C24.1 37.4 23.7 36.8 23.2 36.3C22.8 35.8 22.3 35.2 21.8 35C20.1 34.1 18.9 33.6 18 33.5C16.9 33.4 15.5 32 15.4 30.8C15.3 29.6 14 28 12.6 27.2C11.4 26.5 10.5 24.8 10.2 24.2L10.3 24C10.4 23.7 10.6 23.5 10.7 23.2L10.8 23.1C11.1 22.6 10.9 22 10.4 21.7C9.89999 21.4 9.3 21.6 9 22.1L8.89999 22.2C8.69999 22.5 8.59999 22.8 8.39999 23L8.10001 23.6C8.00001 23.9 7.90001 24.2 8.10001 24.5L8.29999 25C8.79999 26.1 9.9 28 11.5 28.8C12.6 29.4 13.3 30.6 13.3 30.9C13.5 32.9 15.6 35.1 17.6 35.3C17.9 35.3 18.7 35.6 20.7 36.6C20.9 36.7 21.2 37.1 21.5 37.4C22.1 38.1 22.8 39 23.9 39.4C24.2 39.5 24.4 39.6 24.6 39.6C24.5 39.8 24.3 40.1 24.2 40.4C23.2 42.6 23.6 45.2 25.2 47.5C26 48.7 26.9 49.5 27.5 50L28.2 50.7C28.2 50.9 28.2 51.4 28.1 51.8C28 52.5 27.9 53.5 28 54.5C28.3 56.1 28.2 57.9 28 58.6C27.6 60 27.6 61.9 28 63.5C28.2 64.4 28.1 65.6 28.1 66.5V67.1C28 68.5 28.9 69.9 29.8 70.9C30.7 71.8 31.7 72.3 32.7 72.3C33.1 72.3 33.6 72.2 34 72C35.8 71 35.4 69.1 35.3 68.3C35.3 68.2 35.2 68 35.2 67.9C36 66.7 35.8 65.4 35.7 64.6C35.7 64.4 35.6 64 35.6 64C35.7 63.7 36.4 63.2 36.8 62.9C37.3 62.5 37.8 62.2 38.2 61.7C38.8 61 38.9 60.2 39 59.7C40.4 59 41.1 58 41.6 56.2L41.7 56C41.8 55.6 42 54.9 42.2 54.6C43.4 54.3 44.8 53.8 45.5 51.7C45.9 50.7 45.8 49.7 45.7 48.9V48.5C47.6 46.8 48.2 44.9 47.3 43.2C46.4 41.4 43.7 40.4 42.2 40.3Z"/>
</mask>
<path d="M40 0C17.9 0 0 17.9 0 40C0 62.1 17.9 80 40 80C62.1 80 80 62.1 80 40C80 17.9 62.1 0 40 0ZM40 78C19 78 2 61 2 40C2 19 19 2 40 2C61 2 78 19 78 40C78 61 61 78 40 78ZM66.1 23.1C65.7 23.5 65.7 24 66 24.4C66.1 24.5 66.1 24.6 66.2 24.6C66.8 25.1 67.3 25.4 67.9 25.4C68.3 25.4 68.7 25.3 69 25C69.1 24.9 69.2 24.9 69.2 24.8H69.4C69.5 24.8 69.7 24.7 69.9 24.8L70.8 24.9C71.3 25 71.8 24.6 71.9 24.1C72 23.6 71.6 23.1 71.1 23L70.7 22.9L70.8 22.6C70.9 22.1 70.6 21.5 70.1 21.4C69.6 21.3 69 21.6 68.9 22.1L68.7 22.6C68.7 22.8 68.6 23 68.4 23.2L68.3 23.3H68C67.9 23.3 67.7 23.3 67.4 23C67 22.8 66.4 22.8 66.1 23.1ZM61.7 22.7C61.9 22.7 62 22.7 62.2 22.6C62.6 22.4 63.1 22.1 63.6 22C63.7 22 63.9 21.9 64 21.9C64.1 21.9 64.2 21.9 64.3 21.8C64.4 21.9 64.4 21.9 64.5 21.9C64.6 21.9 64.7 22 64.7 22.1C65 22.4 65.5 22.5 65.9 22.3C66.3 22.1 66.5 21.6 66.4 21.1C66.2 20.4 65.5 20.2 65.3 20.1C65.1 20 64.9 20 64.7 20.1C64.6 20 64.4 19.9 64.2 19.8C64.1 19.8 64 19.8 63.9 19.7C63.1 19.5 62.4 19.8 61.2 20.8C60.8 21.1 60.7 21.7 61 22.1C61.1 22.6 61.4 22.7 61.7 22.7ZM70.5 56.3C70 56 69.4 56.2 69.1 56.7L69 56.9C68.7 57.4 68.5 57.8 68.2 58.3C67.9 57.9 67.8 57.4 67.9 56.9C68 55.7 67.5 54.8 66.9 53.7L66.3 52.5C65.5 50.8 65.6 47.9 65.9 46.4C66.1 45.4 66 45 65.4 44.3C65.2 44 64.9 43.7 64.6 43.2C64 42.2 64.3 41.8 64.9 41.2L65.3 40.8C65.6 40.4 65.6 39.8 65.2 39.5C64.7 39 63.4 38.5 62.3 38.5C62 38.5 61.7 38.5 61.4 38.6C61 38.8 60.3 38.9 59.6 38.9C58.6 38.9 57.1 38.7 56.2 38.1C55 37.3 54 34.7 53.5 33.2C53.2 32.1 53.7 30.4 54.1 29L54.4 28.1C54.6 27.3 55.2 27 55.8 26.7C56.3 26.4 56.7 26.2 57 25.7C57.4 24.9 57.7 24.5 58.2 24.4C58.6 24.3 58.9 23.8 58.9 23.4C58.9 22.9 58.5 22.6 58.1 22.5C57.9 22.5 57.7 22.4 57.5 22.3C56.8 22 56.6 21.5 57.3 19.7C57.4 19.4 57.5 19.2 57.5 19C57.6 18.6 58 18.4 59.1 18.3H59.3C59.7 18.3 60 18.1 60.1 17.7C60.3 17.4 60.2 17 60 16.7C59.5 16 58.6 15.5 57.8 15.2C56.9 14.8 56.8 14.1 56.9 13.8C57 13.6 57.1 13.4 57.4 13.4C57.7 13.4 57.9 13.4 58.1 13.2L59.6 12C60 11.7 60.1 11 59.8 10.6C59.5 10.2 58.8 10.1 58.4 10.4C57.8 10.9 57.4 11.2 57.2 11.4C56.1 11.5 55.2 12.2 55 13.3C54.8 14.4 55.2 15.9 56.7 16.8C56.2 17.1 55.7 17.6 55.5 18.4C55.5 18.6 55.4 18.8 55.3 19C55 19.9 54.1 22.3 55.9 23.6C55.6 23.9 55.4 24.3 55.3 24.7C55.2 24.8 55 24.9 54.9 25C54.2 25.4 53 26.1 52.6 27.7C52.5 28 52.5 28.2 52.3 28.6C51.8 30.2 51.3 32.1 51.7 33.8C51.9 34.6 53 38.5 55.2 39.9C56.7 40.9 59 41 59.7 41C60.7 41 61.6 40.9 62.2 40.6H62.4C62.6 40.6 62.8 40.6 63 40.7C62.5 41.5 62 42.8 63.1 44.4C63.5 45 63.8 45.4 64 45.6C64.1 45.7 64.1 45.8 64.2 45.8V46C63.8 47.6 63.6 51 64.7 53.3C64.9 53.8 65.2 54.2 65.4 54.7C65.9 55.6 66.2 56.2 66.2 56.8C66.1 57.9 66.4 58.8 66.9 59.6L67.8 60.7C68 61 68.3 61.1 68.6 61.1C68.9 61.1 69.2 60.9 69.4 60.6L70.2 59.4C70.5 58.9 70.8 58.4 71.1 58L71.2 57.8C71.2 57.1 71 56.5 70.5 56.3ZM42.2 40.3C41.5 40.2 41.1 40.1 40.6 39.4C39.5 37.8 38 37.1 36.8 36.7C36.8 36.7 36.8 36.6 36.7 36.6C36.4 36 35.8 34.8 34.1 34.3C33.8 34.2 33.6 34.1 33.4 34.1C32.5 33.8 31.7 33.5 30.8 33.5C30.2 33.5 29.6 33.6 29 33.8C28.8 33.9 28.6 34 28.3 34.1C27.9 34.3 27.4 34.5 27.3 34.5C27.2 34.5 27.2 34.4 27.1 34.4C27.1 33.6 26.8 33.1 26.5 32.8C26.3 32.6 25.9 32.2 25.3 32C25.3 31.5 25.1 31 24.9 30.6C24.1 29.2 22.2 28.7 20.7 29.6V29.5C20.6 28.5 20.7 27.8 20.9 27.5C22.1 27.6 23.3 27.1 24.2 26.7C24.3 26.7 24.3 26.7 24.4 26.6C24.5 26.7 24.5 26.9 24.6 27C25.2 28.3 26.2 30.3 28.2 30.3H28.6C31.3 29.9 31 27 30.9 25.9C30.9 25.7 30.8 25.2 30.8 24.9C31.6 23.6 31.7 22.5 31.7 21.6V21.5C31.8 21.3 32.3 20.8 32.5 20.7H32.6C32.8 20.7 33.1 20.7 33.3 20.8C33.7 20.9 34.1 20.9 34.5 20.9C35.3 20.9 36.1 20.7 36.7 20.2C37.2 19.8 37.5 19.4 37.7 18.9H38.3C39.9 18.8 40.6 18.1 41 17.5C41.7 16.2 41 14.9 40.6 14.2V14.1C40.6 13.6 40.8 12 39.2 11.1C38.9 10.9 38.8 10.8 38.7 10.8C38.5 9 36.6 7.5 34.8 7.7C34.4 7.2 33.8 6.6 32.8 6.4C31.5 6.1 30.3 6.5 29.5 7.4C28.8 8.2 28.6 9.3 28.7 10.3C28.7 10.3 28.7 10.4 28.6 10.5C28.5 10.6 28.5 10.6 28.4 10.6C27.5 10.5 27.4 10.5 26.5 9.7L26.4 9.6C26.2 9.4 25.9 9.2 25.8 9.1L25.1 8.3C24.7 7.9 24.1 7.8 23.7 8.2C23.3 8.6 23.2 9.2 23.6 9.6L24.3 10.4C24.6 10.7 24.9 11 25.2 11.2L25.3 11.3C26.3 12.1 26.8 12.5 28.4 12.6C29.1 12.6 29.7 12.3 30.2 11.8C30.6 11.3 30.8 10.6 30.8 10.1C30.7 9.5 30.8 9 31.1 8.7C31.4 8.3 31.9 8.2 32.5 8.3C33 8.4 33.2 8.7 33.5 9.2C33.7 9.7 34.3 9.9 34.7 9.7C35.6 9.4 36.7 10.2 36.8 11C36.9 11.9 37.4 12.2 38.3 12.7C38.7 12.9 38.8 13.3 38.7 13.9C38.7 14.2 38.6 14.6 38.8 15H39C39.3 15.6 39.6 16.1 39.4 16.4C39.2 16.7 38.8 16.8 38.4 16.8H38.3C38 16.8 37.7 16.7 37.5 16.6C37.2 16.4 36.7 16.4 36.4 16.6C36.1 16.8 35.9 17.2 36 17.6V17.7C36 17.9 35.9 18.2 35.6 18.4C35.1 18.8 34.4 18.7 33.6 18.6C33.2 18.5 32.7 18.5 32.3 18.5C31.2 18.6 29.8 20.1 29.8 21V21.2C29.7 22 29.7 22.8 29.1 23.8C29.1 23.8 29.1 23.9 29 23.9C28.8 24.3 28.8 24.8 28.9 25.9C29.1 27.7 28.9 28.1 28.3 28.1H28.2C27.5 28.1 27 27.2 26.4 25.9C26.1 25.3 25.9 24.9 25.7 24.6C25.5 24.3 25.1 24.2 24.8 24.2C24.5 24.2 24.1 24.4 23.5 24.6C22.7 24.9 21.9 25.3 21 25.2C20.4 25.1 20 25.3 19.6 25.7C18.7 26.7 18.8 28.6 18.8 29.4C18.9 31.2 19.9 31.5 20.5 31.5C20.9 31.5 21.3 31.4 21.7 31.2C22.3 30.9 23 31 23.3 31.5C23.5 31.8 23.5 32.1 23.4 32.4C23.3 32.7 23.4 33.1 23.6 33.3C23.8 33.6 24.2 33.7 24.5 33.7C24.8 33.7 25 33.8 25.1 33.9C25.2 34.1 25.2 34.3 25.2 34.7C25.1 35 25.2 35.4 25.5 35.6C25.7 35.8 25.9 35.9 26.7 36.2C27.5 36.5 28.2 36.2 29.2 35.8L29.8 35.5C30.7 35.1 31.6 35.3 32.8 35.8C33 35.9 33.3 36 33.6 36C34.5 36.3 34.8 36.8 35 37.3C35.2 37.7 35.4 38.1 35.9 38.3C37 38.7 38.1 39.2 39 40.4C39.9 41.7 41 42 42 42.1C43.2 42.2 45 43 45.6 44.1C46.2 45.4 44.8 46.7 44.2 47.3C43.6 47.7 43.7 48.5 43.8 49.3C43.9 49.9 44 50.6 43.7 51.2C43.2 52.6 42.6 52.7 41.5 52.9C40.6 53.1 40.3 54.1 39.8 55.7L39.7 55.9C39.3 57.3 38.8 57.9 37.7 58.3C37.4 58.4 37.1 58.7 37.1 59.1V59.5C37.1 59.9 37.1 60.3 36.8 60.7C36.5 61 36.2 61.3 35.7 61.6C35 62.1 34.2 62.7 33.9 63.5C33.7 64 33.8 64.6 33.9 65.2C34 66 34.1 66.6 33.6 67.2C33.2 67.7 33.3 68.4 33.4 69C33.6 69.9 33.5 70.3 33.1 70.5C32.7 70.7 32 70.5 31.3 69.8C30.7 69.2 30.1 68.2 30.2 67.5V66.9C30.3 65.8 30.4 64.4 30.1 63.3C29.8 61.9 29.8 60.5 30.1 59.3C30.4 58.2 30.3 56 30.1 54.4C30 53.7 30.1 53 30.2 52.3C30.3 51.5 30.4 50.8 30.1 50.2C29.9 49.7 29.4 49.3 28.9 48.8C28.3 48.3 27.6 47.7 26.9 46.7C25.7 44.9 25.4 43 26.1 41.5C26.3 41.1 26.5 40.7 26.7 40.4C27 39.9 27.3 39.5 27.2 38.8C27.2 38.3 26.7 37.9 26.2 37.9H25.9C25.6 37.9 25.2 37.9 24.8 37.7C24.1 37.4 23.7 36.8 23.2 36.3C22.8 35.8 22.3 35.2 21.8 35C20.1 34.1 18.9 33.6 18 33.5C16.9 33.4 15.5 32 15.4 30.8C15.3 29.6 14 28 12.6 27.2C11.4 26.5 10.5 24.8 10.2 24.2L10.3 24C10.4 23.7 10.6 23.5 10.7 23.2L10.8 23.1C11.1 22.6 10.9 22 10.4 21.7C9.89999 21.4 9.3 21.6 9 22.1L8.89999 22.2C8.69999 22.5 8.59999 22.8 8.39999 23L8.10001 23.6C8.00001 23.9 7.90001 24.2 8.10001 24.5L8.29999 25C8.79999 26.1 9.9 28 11.5 28.8C12.6 29.4 13.3 30.6 13.3 30.9C13.5 32.9 15.6 35.1 17.6 35.3C17.9 35.3 18.7 35.6 20.7 36.6C20.9 36.7 21.2 37.1 21.5 37.4C22.1 38.1 22.8 39 23.9 39.4C24.2 39.5 24.4 39.6 24.6 39.6C24.5 39.8 24.3 40.1 24.2 40.4C23.2 42.6 23.6 45.2 25.2 47.5C26 48.7 26.9 49.5 27.5 50L28.2 50.7C28.2 50.9 28.2 51.4 28.1 51.8C28 52.5 27.9 53.5 28 54.5C28.3 56.1 28.2 57.9 28 58.6C27.6 60 27.6 61.9 28 63.5C28.2 64.4 28.1 65.6 28.1 66.5V67.1C28 68.5 28.9 69.9 29.8 70.9C30.7 71.8 31.7 72.3 32.7 72.3C33.1 72.3 33.6 72.2 34 72C35.8 71 35.4 69.1 35.3 68.3C35.3 68.2 35.2 68 35.2 67.9C36 66.7 35.8 65.4 35.7 64.6C35.7 64.4 35.6 64 35.6 64C35.7 63.7 36.4 63.2 36.8 62.9C37.3 62.5 37.8 62.2 38.2 61.7C38.8 61 38.9 60.2 39 59.7C40.4 59 41.1 58 41.6 56.2L41.7 56C41.8 55.6 42 54.9 42.2 54.6C43.4 54.3 44.8 53.8 45.5 51.7C45.9 50.7 45.8 49.7 45.7 48.9V48.5C47.6 46.8 48.2 44.9 47.3 43.2C46.4 41.4 43.7 40.4 42.2 40.3Z" stroke="url(#paint0_linear)" stroke-width="2" mask="url(#path-1-inside-1)"/>
<defs>
<linearGradient id="paint0_linear" x1="40" y1="0" x2="40" y2="80" gradientUnits="userSpaceOnUse">
<stop stop-color="#4B59F2"/>
<stop offset="1" stop-color="#C73F64"/>
</linearGradient>
</defs>
</svg>
