<svg width="200" height="200" viewBox="0 0 200 200" fill="none" xmlns="http://www.w3.org/2000/svg">
<path fill-rule="evenodd" clip-rule="evenodd" d="M175.873 121.637L33.2217 160.689L15 94.2307L157.688 55.179L175.873 121.637Z" fill="white" stroke="white"/>
<path opacity="0.3" fill-rule="evenodd" clip-rule="evenodd" d="M175.873 121.637L33.2217 160.689L15 94.2307L157.688 55.179L175.873 121.637Z" fill="white" stroke="url(#paint0_linear)"/>
<path fill-rule="evenodd" clip-rule="evenodd" d="M34.6912 107.456L47.2186 104.003L34.6912 107.456Z" fill="url(#paint1_linear)"/>
<path fill-rule="evenodd" clip-rule="evenodd" d="M145.638 114.877L158.129 111.461L145.638 114.877Z" fill="url(#paint2_linear)"/>
<path d="M105.3 110.652C105.778 112.342 105.521 113.922 104.529 115.391C103.574 116.861 101.957 118.037 99.753 118.955L100.929 123.29L98.504 123.951L97.3651 119.763C95.9691 120.131 94.5731 120.424 93.2138 120.535C91.8545 120.682 90.6789 120.682 89.7605 120.498L88.9523 117.596C90.1279 117.779 91.4137 117.816 92.8464 117.743C94.2792 117.669 95.565 117.485 96.6671 117.155L94.4261 108.926C91.6341 108.815 89.5768 108.375 88.2543 107.566C86.9317 106.758 86.05 105.546 85.5724 103.819C85.1316 102.203 85.3887 100.66 86.3806 99.2637C87.3726 97.8677 88.842 96.7656 90.8993 95.9941L89.9809 92.5775L92.4056 91.9163L93.324 95.2961C95.6384 94.745 97.9896 94.5981 100.341 94.8552L100.047 97.5738C97.9896 97.3534 95.9691 97.4269 94.022 97.831L96.263 105.95C98.3938 106.023 100.01 106.244 101.149 106.574C102.288 106.905 103.206 107.383 103.868 108.007C104.492 108.668 105.006 109.55 105.3 110.652ZM88.7686 102.937C89.0257 103.893 89.5033 104.554 90.2381 104.995C90.9728 105.399 92.0749 105.693 93.6179 105.84L91.6341 98.6025C90.4585 99.1535 89.6135 99.778 89.1359 100.55C88.6584 101.248 88.5114 102.056 88.7686 102.937ZM102.178 111.754C101.921 110.873 101.443 110.211 100.745 109.807C100.047 109.403 98.7979 109.146 97.0712 109.036L99.055 116.31C101.663 115.208 102.692 113.665 102.178 111.754Z" fill="url(#paint3_linear)"/>
<path fill-rule="evenodd" clip-rule="evenodd" d="M179.84 112.305L37.1526 151.394L18.9677 84.9362L161.655 45.8477L179.84 112.305Z" fill="white" stroke="white"/>
<path opacity="0.3" fill-rule="evenodd" clip-rule="evenodd" d="M179.84 112.305L37.1526 151.394L18.9677 84.9362L161.655 45.8477L179.84 112.305Z" fill="white" stroke="url(#paint4_linear)"/>
<path fill-rule="evenodd" clip-rule="evenodd" d="M38.6588 98.1248L51.1495 94.7083L38.6588 98.1248Z" fill="url(#paint5_linear)"/>
<path fill-rule="evenodd" clip-rule="evenodd" d="M149.569 105.546L162.096 102.129L149.569 105.546Z" fill="url(#paint6_linear)"/>
<path d="M109.231 101.321C109.709 103.011 109.452 104.591 108.46 106.06C107.505 107.53 105.888 108.705 103.684 109.624L104.86 113.959L102.435 114.62L101.296 110.432C99.9 110.799 98.504 111.093 97.1447 111.203C95.7854 111.35 94.6098 111.35 93.6914 111.167L92.8832 108.264C94.0588 108.448 95.3446 108.485 96.7773 108.411C98.2101 108.338 99.4959 108.154 100.598 107.824L98.357 99.5943C95.565 99.4841 93.5077 99.0433 92.1852 98.2351C90.8626 97.4268 89.9809 96.2145 89.5033 94.4879C89.0625 92.8714 89.3196 91.3284 90.3116 89.9324C91.3035 88.5364 92.773 87.4343 94.8302 86.6628L93.9118 83.2462L96.3365 82.585L97.2549 85.9648C99.5694 85.4137 101.921 85.2668 104.272 85.5239L103.978 88.2425C101.921 88.0221 99.9 88.0956 97.9529 88.4997L100.194 96.6186C102.325 96.6921 103.941 96.9125 105.08 97.2432C106.219 97.5738 107.137 98.0514 107.799 98.6759C108.46 99.3372 108.937 100.219 109.231 101.321ZM92.6995 93.6062C92.9566 94.5613 93.4342 95.2226 94.169 95.6635C94.9037 96.0676 96.0058 96.3615 97.5488 96.5084L95.565 89.2712C94.3894 89.8222 93.5444 90.4467 93.0669 91.2182C92.5893 91.953 92.4791 92.7612 92.6995 93.6062ZM106.145 102.423C105.888 101.541 105.411 100.88 104.713 100.476C104.015 100.072 102.766 99.8148 101.039 99.7046L103.023 106.979C105.631 105.876 106.66 104.37 106.145 102.423Z" fill="url(#paint7_linear)"/>
<path fill-rule="evenodd" clip-rule="evenodd" d="M23.4817 76.0861L166.171 37L184.379 103.473L41.6902 142.559L23.4817 76.0861Z" fill="url(#paint8_linear)" stroke="white"/>
<path fill-rule="evenodd" clip-rule="evenodd" d="M30.9364 80.6339L162.039 44.7217L176.88 98.899L45.7769 134.811L30.9364 80.6339Z" stroke="white"/>
<path d="M43.1409 87.5445L55.6316 84.1279" stroke="white" stroke-width="7.3552" stroke-linecap="round"/>
<path d="M152.545 95.8472L165.072 92.4307" stroke="white" stroke-width="7.3552" stroke-linecap="round"/>
<path d="M113.75 92.4674C114.228 94.1573 113.97 95.737 112.978 97.2065C112.023 98.676 110.407 99.8516 108.203 100.77L109.378 105.105L106.954 105.766L105.815 101.578C104.419 101.946 103.023 102.239 101.663 102.35C100.304 102.497 99.1285 102.497 98.2101 102.313L97.4018 99.4107C98.5774 99.5944 99.8632 99.6311 101.296 99.5577C102.729 99.4842 104.015 99.3005 105.117 98.9699L102.876 90.7407C100.084 90.6305 98.0264 90.1896 96.7038 89.3814C95.3813 88.5732 94.4996 87.3609 94.022 85.6342C93.5812 84.0178 93.8383 82.4748 94.8302 81.0788C95.8221 79.6828 97.2916 78.5807 99.3489 77.8092L98.4305 74.3926L100.855 73.7313L101.774 77.1112C104.088 76.5601 106.439 76.4131 108.79 76.6703L108.497 79.3889C106.439 79.1684 104.419 79.2419 102.472 79.646L104.713 87.765C106.843 87.8385 108.46 88.0589 109.599 88.3895C110.737 88.7202 111.656 89.1977 112.317 89.8223C112.978 90.5203 113.456 91.3652 113.75 92.4674ZM97.2182 84.7893C97.4753 85.7444 97.9529 86.4057 98.6877 86.8466C99.4224 87.2507 100.525 87.5446 102.067 87.6915L100.084 80.4543C98.9081 81.0053 98.0631 81.6298 97.5855 82.4013C97.1079 83.0993 96.9977 83.9076 97.2182 84.7893ZM110.627 93.6062C110.37 92.7245 109.893 92.0633 109.195 91.6591C108.497 91.255 107.247 90.9979 105.521 90.8877L107.505 98.1617C110.113 97.0228 111.178 95.5166 110.627 93.6062Z" fill="white"/>
<defs>
<linearGradient id="paint0_linear" x1="15" y1="55.179" x2="111.772" y2="202.729" gradientUnits="userSpaceOnUse">
<stop stop-color="#FF1453"/>
<stop offset="1" stop-color="#9327F5"/>
</linearGradient>
<linearGradient id="paint1_linear" x1="-100.557" y1="105.729" x2="528.563" y2="105.729" gradientUnits="userSpaceOnUse">
<stop stop-color="#9327F5"/>
<stop offset="0.0802283" stop-color="#A524DB"/>
<stop offset="0.2242" stop-color="#C01FB1"/>
<stop offset="0.3717" stop-color="#D71B8F"/>
<stop offset="0.5213" stop-color="#E81875"/>
<stop offset="0.6737" stop-color="#F51662"/>
<stop offset="0.8309" stop-color="#FD1457"/>
<stop offset="1" stop-color="#FF1453"/>
</linearGradient>
<linearGradient id="paint2_linear" x1="-100.557" y1="113.17" x2="528.563" y2="113.17" gradientUnits="userSpaceOnUse">
<stop stop-color="#9327F5"/>
<stop offset="0.0802283" stop-color="#A524DB"/>
<stop offset="0.2242" stop-color="#C01FB1"/>
<stop offset="0.3717" stop-color="#D71B8F"/>
<stop offset="0.5213" stop-color="#E81875"/>
<stop offset="0.6737" stop-color="#F51662"/>
<stop offset="0.8309" stop-color="#FD1457"/>
<stop offset="1" stop-color="#FF1453"/>
</linearGradient>
<linearGradient id="paint3_linear" x1="-100.557" y1="107.927" x2="528.563" y2="107.927" gradientUnits="userSpaceOnUse">
<stop stop-color="#9327F5"/>
<stop offset="0.0802283" stop-color="#A524DB"/>
<stop offset="0.2242" stop-color="#C01FB1"/>
<stop offset="0.3717" stop-color="#D71B8F"/>
<stop offset="0.5213" stop-color="#E81875"/>
<stop offset="0.6737" stop-color="#F51662"/>
<stop offset="0.8309" stop-color="#FD1457"/>
<stop offset="1" stop-color="#FF1453"/>
</linearGradient>
<linearGradient id="paint4_linear" x1="18.9677" y1="45.8477" x2="115.787" y2="193.419" gradientUnits="userSpaceOnUse">
<stop stop-color="#FF1453"/>
<stop offset="1" stop-color="#9327F5"/>
</linearGradient>
<linearGradient id="paint5_linear" x1="44.9049" y1="3.06696" x2="44.9049" y2="507.112" gradientUnits="userSpaceOnUse">
<stop stop-color="#9327F5"/>
<stop offset="0.3245" stop-color="#9427F3"/>
<stop offset="0.4794" stop-color="#9926EB"/>
<stop offset="0.5984" stop-color="#A224DE"/>
<stop offset="0.6991" stop-color="#AE22CC"/>
<stop offset="0.7881" stop-color="#BE1FB4"/>
<stop offset="0.8689" stop-color="#D21C96"/>
<stop offset="0.942" stop-color="#E91874"/>
<stop offset="1" stop-color="#FF1453"/>
</linearGradient>
<linearGradient id="paint6_linear" x1="155.832" y1="3.06704" x2="155.832" y2="507.112" gradientUnits="userSpaceOnUse">
<stop stop-color="#9327F5"/>
<stop offset="0.3245" stop-color="#9427F3"/>
<stop offset="0.4794" stop-color="#9926EB"/>
<stop offset="0.5984" stop-color="#A224DE"/>
<stop offset="0.6991" stop-color="#AE22CC"/>
<stop offset="0.7881" stop-color="#BE1FB4"/>
<stop offset="0.8689" stop-color="#D21C96"/>
<stop offset="0.942" stop-color="#E91874"/>
<stop offset="1" stop-color="#FF1453"/>
</linearGradient>
<linearGradient id="paint7_linear" x1="99.4074" y1="3.067" x2="99.4074" y2="507.112" gradientUnits="userSpaceOnUse">
<stop stop-color="#9327F5"/>
<stop offset="0.3245" stop-color="#9427F3"/>
<stop offset="0.4794" stop-color="#9926EB"/>
<stop offset="0.5984" stop-color="#A224DE"/>
<stop offset="0.6991" stop-color="#AE22CC"/>
<stop offset="0.7881" stop-color="#BE1FB4"/>
<stop offset="0.8689" stop-color="#D21C96"/>
<stop offset="0.942" stop-color="#E91874"/>
<stop offset="1" stop-color="#FF1453"/>
</linearGradient>
<linearGradient id="paint8_linear" x1="-76.9355" y1="59.3638" x2="90.2198" y2="256.217" gradientUnits="userSpaceOnUse">
<stop stop-color="#FF1453"/>
<stop offset="1" stop-color="#9327F5"/>
</linearGradient>
</defs>
</svg>
