<svg width="16" height="4" viewBox="0 0 16 4" fill="none" xmlns="http://www.w3.org/2000/svg">
<path d="M4 2C4 1.60444 3.8827 1.21775 3.66294 0.888855C3.44318 0.559957 3.13082 0.303612 2.76537 0.152237C2.39992 0.000861645 1.99778 -0.0387335 1.60982 0.0384369C1.22186 0.115607 0.865492 0.30608 0.585787 0.585785C0.306082 0.86549 0.115601 1.22186 0.0384303 1.60982C-0.0387401 1.99778 0.000866562 2.39991 0.152242 2.76537C0.303617 3.13082 0.559962 3.44317 0.88886 3.66293C1.21776 3.8827 1.60444 4 2 4C2.52995 3.99842 3.03774 3.78719 3.41247 3.41246C3.7872 3.03773 3.99842 2.52995 4 2ZM6 2C6 2.39556 6.1173 2.78225 6.33706 3.11115C6.55682 3.44004 6.86918 3.69639 7.23463 3.84776C7.60009 3.99914 8.00222 4.03873 8.39018 3.96156C8.77814 3.88439 9.13451 3.69392 9.41421 3.41422C9.69392 3.13451 9.8844 2.77814 9.96157 2.39018C10.0387 2.00222 9.99914 1.60009 9.84776 1.23463C9.69639 0.869182 9.44004 0.556829 9.11114 0.337067C8.78224 0.117304 8.39556 0 8 0C7.47005 0.00158262 6.96227 0.21281 6.58754 0.58754C6.21281 0.96227 6.00158 1.47005 6 2ZM12 2C12 2.39556 12.1173 2.78225 12.3371 3.11115C12.5568 3.44004 12.8692 3.69639 13.2346 3.84776C13.6001 3.99914 14.0022 4.03873 14.3902 3.96156C14.7781 3.88439 15.1345 3.69392 15.4142 3.41422C15.6939 3.13451 15.8844 2.77814 15.9616 2.39018C16.0387 2.00222 15.9991 1.60009 15.8478 1.23463C15.6964 0.869182 15.44 0.556829 15.1111 0.337067C14.7822 0.117304 14.3956 0 14 0C13.4701 0.00158262 12.9623 0.21281 12.5875 0.58754C12.2128 0.96227 12.0016 1.47005 12 2Z" fill="#B63958"/>
</svg>
