<svg width="38" height="38" viewBox="0 0 38 38" fill="none" xmlns="http://www.w3.org/2000/svg">
<circle cx="19" cy="19" r="18" stroke="#B63958" stroke-width="2"/>
<path fill-rule="evenodd" clip-rule="evenodd" d="M19 11C17.8954 11 17 11.8954 17 13V16.5H13.5C12.3954 16.5 11.5 17.3954 11.5 18.5C11.5 19.6046 12.3954 20.5 13.5 20.5H17V24C17 25.1046 17.8954 26 19 26C20.1046 26 21 25.1046 21 24V20.5H24.5C25.6046 20.5 26.5 19.6046 26.5 18.5C26.5 17.3954 25.6046 16.5 24.5 16.5H21V13C21 11.8954 20.1046 11 19 11Z" fill="#B63958"/>
</svg>
