<svg width="200" height="200" viewBox="0 0 200 200" fill="none" xmlns="http://www.w3.org/2000/svg">
<path d="M22.4751 151.89H94.151" stroke="black" stroke-linecap="round"/>
<path d="M22.4751 162.901H61.0347" stroke="black" stroke-linecap="round"/>
<path opacity="0.3" d="M123.571 38.8329H14V173.261H123.571V38.8329Z" stroke="url(#paint0_linear)"/>
<path opacity="0.3" d="M117.337 44.5631H19.6912V142.209H117.337V44.5631Z" stroke="url(#paint1_linear)"/>
<path fill-rule="evenodd" clip-rule="evenodd" d="M60.3698 79.4247L103.292 96.0452C104.58 96.5438 105.411 97.8319 105.411 99.3277V107.306H31.4086V82.915C31.4086 81.0036 32.8629 79.4247 34.608 79.4247H35.8546C35.8546 82.3333 43.4584 84.6601 49.0678 84.6601C56.2147 84.6601 60.3698 82.2917 60.3698 79.4247Z" fill="white"/>
<path fill-rule="evenodd" clip-rule="evenodd" d="M68.6801 82.6241L65.2313 86.4053L68.6801 82.6241Z" fill="#42C4EF"/>
<path fill-rule="evenodd" clip-rule="evenodd" d="M74.6218 84.9094L71.6301 88.1504L74.6218 84.9094Z" fill="#42C4EF"/>
<path fill-rule="evenodd" clip-rule="evenodd" d="M86.0486 89.4385C86.0486 91.3498 84.5943 93.4274 82.8491 93.4274H73.2092C70.5499 93.4274 68.3893 95.7543 68.3893 98.6629L68.4308 100.408H105.411C105.411 100.408 105.411 99.4108 105.411 99.3692C105.411 97.9149 104.539 96.5853 103.292 96.0867L86.0486 89.4385Z" fill="white"/>
<path d="M105.411 100.283H31.3671V107.347H105.411V100.283Z" fill="white"/>
<path fill-rule="evenodd" clip-rule="evenodd" d="M60.3698 79.4247L103.292 96.0452C104.58 96.5438 105.411 97.8319 105.411 99.3277V107.306H31.4086V82.915C31.4086 81.0036 32.8629 79.4247 34.608 79.4247H35.9792C35.9792 82.3333 41.6302 84.6601 47.2396 84.6601C54.3864 84.6601 60.3698 82.2917 60.3698 79.4247Z" fill="url(#paint2_linear)"/>
<path d="M31.4086 100.325H105.453" stroke="white" stroke-width="2.6668" stroke-linejoin="round"/>
<path d="M68.6801 82.6241L65.2313 86.4053" stroke="white" stroke-width="2.1335" stroke-linecap="round" stroke-linejoin="round"/>
<path d="M74.6218 84.9094L71.6301 88.1504" stroke="white" stroke-width="2.1335" stroke-linecap="round" stroke-linejoin="round"/>
<path d="M86.1316 89.397C86.1316 91.3083 84.6773 93.3859 82.9321 93.3859H73.2922C70.633 93.3859 68.4723 95.7128 68.4723 98.6213V100.367" stroke="white" stroke-width="2.1335" stroke-linejoin="round"/>
<path d="M41.09 100.325C41.09 94.5493 36.7686 89.854 31.4501 89.854" stroke="white" stroke-width="2.1335" stroke-linecap="round" stroke-linejoin="round"/>
<path opacity="0.3" fill-rule="evenodd" clip-rule="evenodd" d="M186.35 96.759H132.209V25H186.35V96.759Z" fill="white" stroke="url(#paint3_linear)"/>
<path d="M138.943 35.048H177.918" stroke="black" stroke-linecap="round"/>
<path fill-rule="evenodd" clip-rule="evenodd" d="M141.519 86.156V65.5466H149.497V86.156" fill="url(#paint4_linear)"/>
<path fill-rule="evenodd" clip-rule="evenodd" d="M154.193 86.156V56.5715H162.17V86.156" fill="url(#paint5_linear)"/>
<path fill-rule="evenodd" clip-rule="evenodd" d="M166.866 86.156V47.264H174.885V86.156" fill="url(#paint6_linear)"/>
<path d="M139.899 86.4469H176.506" stroke="#010101" stroke-width="1.1009" stroke-linecap="round" stroke-linejoin="round"/>
<path d="M115.301 159.411H162.669V94.5908" stroke="#010101"/>
<path d="M114.47 163.15C116.374 163.15 117.918 161.606 117.918 159.702C117.918 157.797 116.374 156.253 114.47 156.253C112.565 156.253 111.021 157.797 111.021 159.702C111.021 161.606 112.565 163.15 114.47 163.15Z" fill="#010101"/>
<path d="M162.669 99.1615C164.574 99.1615 166.118 97.6175 166.118 95.7128C166.118 93.8081 164.574 92.264 162.669 92.264C160.764 92.264 159.22 93.8081 159.22 95.7128C159.22 97.6175 160.764 99.1615 162.669 99.1615Z" fill="#010101"/>
<path d="M161.879 174.245C170.256 174.245 177.046 167.454 177.046 159.078C177.046 150.702 170.256 143.912 161.879 143.912C153.503 143.912 146.713 150.702 146.713 159.078C146.713 167.454 153.503 174.245 161.879 174.245Z" fill="white" stroke="white" stroke-width="2"/>
<path opacity="0.3" d="M161.879 174.245C170.256 174.245 177.046 167.454 177.046 159.078C177.046 150.702 170.256 143.912 161.879 143.912C153.503 143.912 146.713 150.702 146.713 159.078C146.713 167.454 153.503 174.245 161.879 174.245Z" fill="white" stroke="url(#paint7_linear)" stroke-width="2"/>
<path d="M166.741 161.987C166.741 162.943 166.367 163.774 165.661 164.397C164.913 165.02 163.916 165.436 162.586 165.602V168.095H161.215V165.685C160.425 165.685 159.636 165.602 158.888 165.477C158.14 165.353 157.517 165.186 157.018 164.937V163.275C157.6 163.524 158.306 163.774 159.096 163.94C159.885 164.106 160.591 164.189 161.215 164.189V159.452C159.76 158.995 158.722 158.455 158.14 157.832C157.558 157.209 157.267 156.419 157.267 155.463C157.267 154.508 157.641 153.76 158.348 153.137C159.096 152.555 160.051 152.181 161.215 152.056V150.103H162.586V152.056C163.916 152.098 165.162 152.347 166.409 152.846L165.868 154.258C164.788 153.843 163.708 153.594 162.627 153.51V158.164C163.749 158.538 164.58 158.871 165.162 159.203C165.702 159.535 166.118 159.951 166.409 160.366C166.616 160.782 166.741 161.322 166.741 161.987ZM159.013 155.422C159.013 155.962 159.179 156.419 159.511 156.751C159.844 157.084 160.384 157.375 161.173 157.707V153.552C160.467 153.677 159.927 153.884 159.553 154.217C159.22 154.508 159.013 154.923 159.013 155.422ZM164.913 162.112C164.913 161.613 164.747 161.197 164.414 160.865C164.082 160.533 163.459 160.242 162.544 159.909V164.106C164.123 163.857 164.913 163.233 164.913 162.112Z" fill="black"/>
<defs>
<linearGradient id="paint0_linear" x1="14" y1="38.8329" x2="145.667" y2="146.153" gradientUnits="userSpaceOnUse">
<stop stop-color="#FF1453"/>
<stop offset="1" stop-color="#9327F5"/>
</linearGradient>
<linearGradient id="paint1_linear" x1="19.6912" y1="44.5631" x2="117.337" y2="142.209" gradientUnits="userSpaceOnUse">
<stop stop-color="#FF1453"/>
<stop offset="1" stop-color="#9327F5"/>
</linearGradient>
<linearGradient id="paint2_linear" x1="31.4086" y1="79.4247" x2="49.8057" y2="128.255" gradientUnits="userSpaceOnUse">
<stop stop-color="#FF1453"/>
<stop offset="1" stop-color="#9327F5"/>
</linearGradient>
<linearGradient id="paint3_linear" x1="186.35" y1="96.759" x2="117.347" y2="44.6974" gradientUnits="userSpaceOnUse">
<stop stop-color="#FF1453"/>
<stop offset="1" stop-color="#9327F5"/>
</linearGradient>
<linearGradient id="paint4_linear" x1="141.519" y1="65.5466" x2="155.396" y2="70.9181" gradientUnits="userSpaceOnUse">
<stop stop-color="#FF1453"/>
<stop offset="1" stop-color="#9327F5"/>
</linearGradient>
<linearGradient id="paint5_linear" x1="154.193" y1="56.5715" x2="169.067" y2="60.5825" gradientUnits="userSpaceOnUse">
<stop stop-color="#FF1453"/>
<stop offset="1" stop-color="#9327F5"/>
</linearGradient>
<linearGradient id="paint6_linear" x1="166.866" y1="47.264" x2="182.25" y2="50.4363" gradientUnits="userSpaceOnUse">
<stop stop-color="#FF1453"/>
<stop offset="1" stop-color="#9327F5"/>
</linearGradient>
<linearGradient id="paint7_linear" x1="146.713" y1="143.912" x2="177.046" y2="174.245" gradientUnits="userSpaceOnUse">
<stop stop-color="#FF1453"/>
<stop offset="1" stop-color="#9327F5"/>
</linearGradient>
</defs>
</svg>
