<svg width="20" height="20" viewBox="0 0 20 20" fill="none" xmlns="http://www.w3.org/2000/svg">
<path fill-rule="evenodd" clip-rule="evenodd" d="M14.4304 12.44H13.5679L13.2681 12.1423C14.3272 10.9072 14.9714 9.30607 14.9714 7.55174C14.9714 3.65202 11.8103 0.490967 7.91063 0.490967C4.01091 0.490967 0.849854 3.65202 0.849854 7.55174C0.849854 11.4515 4.01091 14.6125 7.91063 14.6125C9.66496 14.6125 11.265 13.9694 12.5001 12.9114L12.7999 13.2091V14.0694L18.2291 19.491L19.8488 17.8713L14.4304 12.44ZM7.90233 12.44C5.20185 12.44 3.0141 10.2522 3.0141 7.55174C3.0141 4.85235 5.20185 2.66351 7.90233 2.66351C10.6017 2.66351 12.7906 4.85235 12.7906 7.55174C12.7906 10.2522 10.6017 12.44 7.90233 12.44Z" fill="#4F4F4F"/>
</svg>
