<svg width="86" height="72" viewBox="0 0 86 72" fill="none" xmlns="http://www.w3.org/2000/svg">
<path d="M56.9817 58.4619L56.9958 58.4786C59.3435 61.2758 61.6416 63.9487 63.3531 65.9224C64.2087 66.9092 64.9175 67.7211 65.4124 68.2862C65.6598 68.5688 65.8537 68.7896 65.9857 68.9398L66.1363 69.1109L66.1748 69.1545L66.1796 69.16C66.2805 69.2653 66.3878 69.4303 66.3878 69.65C66.3878 69.8046 66.3347 69.932 66.2681 70.0307C66.2494 70.0761 66.224 70.1214 66.1903 70.1648C66.1006 70.28 65.9883 70.3352 65.9084 70.3618C65.7771 70.4056 65.6344 70.4 65.6128 70.4H29.8128C27.9638 70.4 26.1254 69.5338 24.9319 68.1239L56.9817 58.4619ZM56.9817 58.4619L56.9663 58.4464C56.8792 58.3593 56.8492 58.2604 56.8603 58.1498C56.8724 58.029 56.9371 57.8828 57.0664 57.7536C57.1535 57.6664 57.2524 57.6365 57.363 57.6475C57.4795 57.6592 57.6196 57.7198 57.7454 57.84C60.0897 60.6332 62.3604 63.328 64.0715 65.3139C64.9284 66.3084 65.6481 67.1288 66.1676 67.6956C66.4263 67.9779 66.6412 68.2038 66.8012 68.3583C66.8793 68.4337 66.9555 68.5031 67.0231 68.5548C67.0372 68.5657 67.0547 68.5787 67.075 68.5923C67.4457 69.1667 67.5427 69.8222 67.2656 70.3764L67.2539 70.3999L67.2447 70.4244C67.0275 71.0036 66.4332 71.4 65.7128 71.4H29.9128C27.6547 71.4 25.5979 70.461 24.1969 68.7799L24.1937 68.7761L0.907976 41.3929C0.490504 40.7989 0.369084 40.1054 0.659997 39.5236L0.671733 39.5001L0.680948 39.4756C0.89814 38.8964 1.49238 38.5 2.21278 38.5H16.6128C16.7992 38.5 16.9156 38.5599 16.9842 38.6286C17.0528 38.6972 17.1128 38.8136 17.1128 39C17.1128 39.1864 17.0528 39.3028 16.9842 39.3714C16.9156 39.4401 16.7992 39.5 16.6128 39.5H2.21278C2.21117 39.5 2.20889 39.5 2.206 39.4999C2.16998 39.4994 2.03868 39.4977 1.91717 39.5382C1.83724 39.5648 1.72489 39.62 1.63529 39.7352C1.60154 39.7786 1.57615 39.8239 1.5575 39.8693C1.49089 39.968 1.4378 40.0955 1.4378 40.25C1.4378 40.467 1.54247 40.6306 1.64225 40.7361L24.9311 68.123L56.9817 58.4619ZM61.5286 3.1201L61.5313 3.12322L84.8313 30.6232L84.8332 30.6254C85.3013 31.1715 85.3763 31.855 85.0656 32.4764L85.0539 32.4999L85.0446 32.5244C84.8274 33.1036 84.2332 33.5 83.5128 33.5H47.7128C45.4548 33.5 43.3978 32.561 41.9969 30.8799L41.9943 30.8768L18.6943 3.37678L18.6924 3.37461C18.2243 2.82848 18.1493 2.14502 18.46 1.52361L18.4718 1.50013L18.481 1.47556C18.6982 0.896384 19.2924 0.5 20.0128 0.5H55.8128C58.0709 0.5 60.1277 1.43895 61.5286 3.1201ZM84.3128 31.5V31.3167L84.1943 31.1768L60.8945 3.67703C59.701 2.26658 57.8623 1.4 56.0128 1.4H20.2128C20.2112 1.4 20.2089 1.39997 20.206 1.39993C20.17 1.39944 20.0387 1.39766 19.9172 1.43815C19.8373 1.46479 19.7249 1.51999 19.6353 1.6352C19.6016 1.67861 19.5762 1.7239 19.5575 1.76933C19.4909 1.868 19.4378 1.99545 19.4378 2.15C19.4378 2.36673 19.5422 2.53017 19.6419 2.63568L42.9311 30.123C44.1246 31.5334 45.9633 32.4 47.8128 32.4H83.6128C83.6144 32.4 83.6167 32.4 83.6196 32.4001C83.6556 32.4006 83.7869 32.4023 83.9084 32.3618C83.9883 32.3352 84.1007 32.28 84.1903 32.1648C84.2832 32.0453 84.3128 31.9115 84.3128 31.8V31.5ZM65.9958 39.4786L65.9818 39.4619L65.9663 39.4464C65.8792 39.3593 65.8492 39.2604 65.8603 39.1498C65.8724 39.029 65.9371 38.8828 66.0664 38.7536C66.1535 38.6664 66.2524 38.6365 66.363 38.6475C66.4795 38.6592 66.6196 38.7198 66.7454 38.84C69.0913 41.635 71.3864 44.3292 73.1091 46.3266C73.9723 47.3273 74.6926 48.1542 75.2041 48.7315C75.4595 49.0198 75.6648 49.2481 75.8104 49.4053C75.8825 49.4833 75.9437 49.5478 75.9906 49.5944C76.0073 49.6111 76.0258 49.6291 76.0445 49.6462C76.4402 50.2314 76.5502 50.9073 76.2656 51.4764L76.2539 51.4999L76.2447 51.5244C76.0275 52.1036 75.4332 52.5 74.7128 52.5H38.9128C36.6547 52.5 34.5979 51.561 33.1969 49.8799L33.1943 49.8768L9.90823 22.3932C9.49056 21.7992 9.36905 21.1056 9.66003 20.5236L9.67176 20.5001L9.68098 20.4756C9.89817 19.8964 10.4924 19.5 11.2128 19.5H25.6128C25.7992 19.5 25.9156 19.5599 25.9842 19.6286C26.0528 19.6972 26.1128 19.8136 26.1128 20C26.1128 20.1864 26.0528 20.3028 25.9842 20.3714C25.9156 20.4401 25.7992 20.5 25.6128 20.5H11.2128C11.2112 20.5 11.2089 20.5 11.206 20.4999C11.17 20.4994 11.0387 20.4977 10.9172 20.5382C10.8373 20.5648 10.7249 20.62 10.6353 20.7352C10.6016 20.7786 10.5762 20.8239 10.5575 20.8693C10.4909 20.968 10.4378 21.0954 10.4378 21.25C10.4378 21.4667 10.5422 21.6302 10.6419 21.7357L33.9311 49.223C35.1246 50.6334 36.9633 51.5 38.8128 51.5H74.6128C74.6144 51.5 74.6167 51.5 74.6196 51.5001C74.6556 51.5006 74.7869 51.5023 74.9084 51.4618C74.9883 51.4352 75.1006 51.38 75.1903 51.2648C75.224 51.2214 75.2494 51.1761 75.2681 51.1307C75.3347 51.032 75.3878 50.9046 75.3878 50.75C75.3878 50.5317 75.2819 50.3675 75.1816 50.2621L75.1779 50.2578L75.1394 50.2132L74.9887 50.0388C74.8566 49.8859 74.6626 49.661 74.4151 49.3737C73.92 48.799 73.211 47.9744 72.3551 46.9748C70.6432 44.9756 68.3444 42.2769 65.9958 39.4786Z" stroke="url(#paint0_linear)"/>
<defs>
<linearGradient id="paint0_linear" x1="42.8764" y1="0" x2="42.8764" y2="71.9" gradientUnits="userSpaceOnUse">
<stop stop-color="#4B59F2"/>
<stop offset="1" stop-color="#C73F64"/>
</linearGradient>
</defs>
</svg>
