<svg width="451" height="336" viewBox="0 0 451 336" fill="none" xmlns="http://www.w3.org/2000/svg">
<path d="M139.215 171.572L231.785 118.286L139.215 65L46.6439 118.286L139.215 171.572ZM230.641 118.286L139.215 170.93L47.7885 118.286L139.215 65.642L230.641 118.286Z" fill="black"/>
<path opacity="0.69" fill-rule="evenodd" clip-rule="evenodd" d="M231 130.036L139 183L47 130.036L139 77L231 130.036Z" fill="#A6AFCD"/>
<path fill-rule="evenodd" clip-rule="evenodd" d="M231.213 118.286L139.215 171.215L47.2162 118.286L139.215 65.2854L231.213 118.286Z" fill="white" stroke="white"/>
<path fill-rule="evenodd" clip-rule="evenodd" d="M158.152 35.8046C151.816 28.9163 149.872 22.5304 148.432 16.6466C146.992 10.7629 147.496 7.39056 147.496 3.80293C147.496 0.502311 140.512 0.645816 140.512 0.645816H137.416C137.416 0.645816 130.432 0.502311 130.432 3.80293C130.432 7.39056 130.864 10.7629 129.496 16.6466C128.056 22.5304 126.184 28.9163 119.776 35.8046C114.16 41.8318 111.784 47.4285 112.432 60.631L114.808 101.53C114.808 101.53 115.096 105.405 118.12 107.342C118.552 107.629 118.984 108.562 118.984 108.562L120.64 112.149C120.64 112.149 122.152 115.378 137.344 115.737V115.809C137.92 115.809 138.424 115.809 139 115.809C139.504 115.809 140.08 115.809 140.656 115.809V115.737C155.848 115.306 157.36 112.149 157.36 112.149L159.016 108.562C159.016 108.562 159.448 107.557 159.88 107.342C162.832 105.476 163.192 101.53 163.192 101.53L165.568 60.631C166.072 47.3567 163.696 41.8318 158.152 35.8046Z" fill="white" stroke="white"/>
<path fill-rule="evenodd" clip-rule="evenodd" d="M131.8 2.29616C131.8 1.65039 134.968 0.932861 138.856 0.932861C142.744 0.932861 145.912 1.57863 145.912 2.29616C145.912 3.01369 142.744 3.37245 138.856 3.37245C134.968 3.4442 131.8 3.01369 131.8 2.29616Z" fill="white" stroke="white" stroke-width="0.5"/>
<path fill-rule="evenodd" clip-rule="evenodd" d="M56.7026 214.508L1.8636 182.779C1.2159 182.419 1 181.698 1 180.688V175.857L23.2378 167.708C24.7492 166.843 26.9801 166.771 28.2755 167.492L83.9781 194.533V197.851C83.9781 199.942 84.266 201.24 82.7547 202.105L61.7403 214.292C60.2289 215.157 57.998 215.229 56.7026 214.508Z" fill="white" stroke="white"/>
<path fill-rule="evenodd" clip-rule="evenodd" d="M56.7596 208.508L1.8817 176.779C0.585373 176.058 0.729408 174.76 2.24179 173.895L23.1991 161.708C24.7115 160.843 26.9441 160.771 28.2404 161.492L83.1183 193.221C84.4146 193.942 84.2706 195.24 82.7582 196.105L61.7289 208.292C60.2885 209.157 58.0559 209.229 56.7596 208.508Z" fill="white" stroke="white" stroke-width="0.5"/>
<g opacity="0.5">
<path opacity="0.69" fill-rule="evenodd" clip-rule="evenodd" d="M231 130.036L139 183L47 130.036L139 77L231 130.036Z" fill="#A6AFCD"/>
<path opacity="0.5" fill-rule="evenodd" clip-rule="evenodd" d="M231.213 118.286L139.215 171.215L47.2162 118.286L139.215 65.2854L231.213 118.286Z" fill="white" stroke="url(#paint0_linear)"/>
<path opacity="0.5" fill-rule="evenodd" clip-rule="evenodd" d="M158.152 35.8046C151.816 28.9163 149.872 22.5304 148.432 16.6466C146.992 10.7629 147.496 7.39056 147.496 3.80293C147.496 0.502311 140.512 0.645816 140.512 0.645816H137.416C137.416 0.645816 130.432 0.502311 130.432 3.80293C130.432 7.39056 130.864 10.7629 129.496 16.6466C128.056 22.5304 126.184 28.9163 119.776 35.8046C114.16 41.8318 111.784 47.4285 112.432 60.631L114.808 101.53C114.808 101.53 115.096 105.405 118.12 107.342C118.552 107.629 118.984 108.562 118.984 108.562L120.64 112.149C120.64 112.149 122.152 115.378 137.344 115.737V115.809C137.92 115.809 138.424 115.809 139 115.809C139.504 115.809 140.08 115.809 140.656 115.809V115.737C155.848 115.306 157.36 112.149 157.36 112.149L159.016 108.562C159.016 108.562 159.448 107.557 159.88 107.342C162.832 105.476 163.192 101.53 163.192 101.53L165.568 60.631C166.072 47.3567 163.696 41.8318 158.152 35.8046Z" fill="white" stroke="url(#paint1_linear)"/>
<path opacity="0.5" fill-rule="evenodd" clip-rule="evenodd" d="M131.8 2.29616C131.8 1.65039 134.968 0.932861 138.856 0.932861C142.744 0.932861 145.912 1.57863 145.912 2.29616C145.912 3.01369 142.744 3.37245 138.856 3.37245C134.968 3.4442 131.8 3.01369 131.8 2.29616Z" fill="white" stroke="url(#paint2_linear)" stroke-width="0.5"/>
<path opacity="0.5" fill-rule="evenodd" clip-rule="evenodd" d="M56.7026 214.508L1.8636 182.779C1.2159 182.419 1 181.698 1 180.688V175.857L23.2378 167.708C24.7492 166.843 26.9801 166.771 28.2755 167.492L83.9781 194.533V197.851C83.9781 199.942 84.266 201.24 82.7547 202.105L61.7403 214.292C60.2289 215.157 57.998 215.229 56.7026 214.508Z" fill="white" stroke="url(#paint3_linear)"/>
<path opacity="0.5" fill-rule="evenodd" clip-rule="evenodd" d="M56.7596 208.508L1.8817 176.779C0.585373 176.058 0.729408 174.76 2.24179 173.895L23.1991 161.708C24.7115 160.843 26.9441 160.771 28.2404 161.492L83.1183 193.221C84.4146 193.942 84.2706 195.24 82.7582 196.105L61.7289 208.292C60.2885 209.157 58.0559 209.229 56.7596 208.508Z" fill="white" stroke="url(#paint4_linear)" stroke-width="0.5"/>
</g>
<path opacity="0.69" fill-rule="evenodd" clip-rule="evenodd" d="M339 192.964L247 246L155 192.964L247 140L339 192.964Z" fill="url(#paint5_linear)"/>
<path fill-rule="evenodd" clip-rule="evenodd" d="M339.356 180.429L247.358 233.429L155.359 180.429L247.358 127.499L339.356 180.429Z" fill="white"/>
<path opacity="0.69" fill-rule="evenodd" clip-rule="evenodd" d="M339.356 180.429L247.358 233.429L155.359 180.429L247.358 127.499L339.356 180.429Z" fill="white" stroke="url(#paint6_linear)" stroke-width="2"/>
<path fill-rule="evenodd" clip-rule="evenodd" d="M163.703 276.508L108.864 244.731C108.216 244.37 108 243.648 108 242.636V237.798L130.238 229.709C131.749 228.842 133.98 228.77 135.276 229.492L190.978 256.575V259.897C190.978 261.991 191.266 263.291 189.755 264.158L168.74 276.291C167.229 277.158 164.998 277.23 163.703 276.508Z" fill="url(#paint7_linear)"/>
<path fill-rule="evenodd" clip-rule="evenodd" d="M163.711 270.508L108.881 238.779C107.586 238.058 107.73 236.76 109.241 235.895L130.252 223.708C131.763 222.843 133.994 222.771 135.289 223.492L190.119 255.221C191.414 255.942 191.27 257.24 189.759 258.105L168.748 270.292C167.237 271.157 165.007 271.229 163.711 270.508Z" fill="#E9363F" stroke="white" stroke-width="0.5"/>
<path fill-rule="evenodd" clip-rule="evenodd" d="M215.933 140.734C218.653 131.669 212.067 119.942 216.363 107.281C219.441 98.2158 219.584 89.295 219.441 84.9784C219.369 83.4676 218.868 81.6691 219.513 80.7338C220.372 79.0072 231.11 78 244.498 78C244.569 78 244.641 78 244.713 78C244.856 78 244.999 78 245.071 78C245.142 78 245.214 78 245.285 78C245.357 78 245.357 78 245.428 78C245.5 78 245.5 78 245.572 78C245.643 78 245.715 78 245.786 78C245.93 78 246.073 78 246.144 78C246.216 78 246.288 78 246.359 78C259.747 78.0719 270.485 79.0072 271.344 80.7338C271.989 81.6691 271.416 83.5396 271.416 84.9784C271.273 89.3669 271.416 98.2158 274.494 107.281C278.79 120.014 272.203 131.669 274.924 140.734C279.005 154.547 273.134 165.626 267.836 171.669C262.61 177.712 252.588 177.928 252.588 177.928H245.858H244.856H238.126C238.126 177.928 228.175 177.712 222.877 171.669C217.794 165.626 211.852 154.475 215.933 140.734Z" fill="url(#paint8_linear)"/>
<path opacity="0.75" fill-rule="evenodd" clip-rule="evenodd" d="M215.933 140.662C218.653 131.597 212.067 119.871 216.363 107.209C219.441 98.1439 219.584 89.2231 219.441 84.9065C219.369 83.3957 218.868 81.5972 219.513 80.6619C220.157 79.3669 226.027 78.5036 234.332 78.1439C234.117 79.295 234.547 80.8058 234.547 82.1727C234.69 87.0648 234.547 97.1367 231.11 107.353C226.314 121.669 233.688 134.835 230.609 145.122C226.457 159.223 231.54 170.806 236.909 177.856C234.046 177.568 227.101 176.417 223.021 171.669C217.794 165.482 211.852 154.403 215.933 140.662Z" fill="url(#paint9_linear)"/>
<path d="M245.428 83.108C232.025 83.108 221.159 82.1739 221.159 81.0216C221.159 79.8694 232.025 78.9353 245.428 78.9353C258.832 78.9353 269.698 79.8694 269.698 81.0216C269.698 82.1739 258.832 83.108 245.428 83.108Z" fill="url(#paint10_linear)"/>
<path opacity="0.69" fill-rule="evenodd" clip-rule="evenodd" d="M449.428 256.745L357.429 309.833L265.431 256.745L357.429 203.729L449.428 256.745Z" fill="#A6AFCD"/>
<path fill-rule="evenodd" clip-rule="evenodd" d="M449.428 244.385L357.429 297.472L265.431 244.385L357.429 191.297L449.428 244.385Z" fill="white" stroke="white"/>
<path fill-rule="evenodd" clip-rule="evenodd" d="M388.548 204.015C386.76 180.794 388.334 164.503 388.334 164.503C388.334 164.503 389.478 159.501 383.469 158.001C379.535 156.643 369.376 155.715 357.429 155.715C345.482 155.715 335.252 156.643 331.389 158.001C325.38 159.501 326.525 164.503 326.525 164.503C326.525 164.503 328.098 180.794 326.31 204.015C324.522 227.236 327.955 238.025 329.172 241.527V241.598C330.245 244.742 332.963 246.957 336.254 247.528C341.118 248.314 349.417 249.458 357.429 249.458C365.442 249.458 373.74 248.314 378.605 247.528C381.824 246.957 384.542 244.742 385.687 241.598V241.527C386.832 238.025 390.265 227.165 388.548 204.015Z" fill="white" stroke="white"/>
<path d="M356.499 163.146C341.446 163.146 329.243 161.706 329.243 159.93C329.243 158.154 341.446 156.715 356.499 156.715C371.552 156.715 383.755 158.154 383.755 159.93C383.755 161.706 371.552 163.146 356.499 163.146Z" fill="white" stroke="white" stroke-width="0.5"/>
<path fill-rule="evenodd" clip-rule="evenodd" d="M264.568 334.352L209.704 302.672C209.056 302.312 208.84 301.592 208.84 300.584V295.76L231.088 287.696C232.6 286.832 234.832 286.76 236.128 287.48L291.856 314.48V317.792C291.856 319.88 292.144 321.176 290.632 322.04L269.608 334.208C268.096 335 265.792 335.144 264.568 334.352Z" fill="white" stroke="white"/>
<path fill-rule="evenodd" clip-rule="evenodd" d="M264.496 328.736L209.632 297.056C208.336 296.336 208.48 295.04 209.992 294.176L231.016 282.008C232.528 281.144 234.76 281.072 236.056 281.792L290.92 313.472C292.216 314.192 292.072 315.488 290.56 316.352L269.536 328.52C268.024 329.384 265.792 329.456 264.496 328.736Z" fill="white" stroke="white" stroke-width="0.5"/>
<g opacity="0.5">
<path opacity="0.5" fill-rule="evenodd" clip-rule="evenodd" d="M449.428 244.385L357.429 297.472L265.431 244.385L357.429 191.297L449.428 244.385Z" fill="white" stroke="url(#paint11_linear)"/>
<path opacity="0.5" fill-rule="evenodd" clip-rule="evenodd" d="M388.548 204.015C386.76 180.794 388.334 164.503 388.334 164.503C388.334 164.503 389.478 159.501 383.469 158.001C379.535 156.643 369.376 155.715 357.429 155.715C345.482 155.715 335.252 156.643 331.389 158.001C325.38 159.501 326.525 164.503 326.525 164.503C326.525 164.503 328.098 180.794 326.31 204.015C324.522 227.236 327.955 238.025 329.172 241.527V241.598C330.245 244.742 332.963 246.957 336.254 247.528C341.118 248.314 349.417 249.458 357.429 249.458C365.442 249.458 373.74 248.314 378.605 247.528C381.824 246.957 384.542 244.742 385.687 241.598V241.527C386.832 238.025 390.265 227.165 388.548 204.015Z" fill="white" stroke="url(#paint12_linear)"/>
<path opacity="0.5" d="M356.499 163.146C341.446 163.146 329.243 161.706 329.243 159.93C329.243 158.154 341.446 156.715 356.499 156.715C371.552 156.715 383.755 158.154 383.755 159.93C383.755 161.706 371.552 163.146 356.499 163.146Z" fill="white" stroke="url(#paint13_linear)" stroke-width="0.5"/>
<path opacity="0.5" fill-rule="evenodd" clip-rule="evenodd" d="M264.568 334.352L209.704 302.672C209.056 302.312 208.84 301.592 208.84 300.584V295.76L231.088 287.696C232.6 286.832 234.832 286.76 236.128 287.48L291.856 314.48V317.792C291.856 319.88 292.144 321.176 290.632 322.04L269.608 334.208C268.096 335 265.792 335.144 264.568 334.352Z" fill="white" stroke="url(#paint14_linear)"/>
<path opacity="0.5" fill-rule="evenodd" clip-rule="evenodd" d="M264.496 328.736L209.632 297.056C208.336 296.336 208.48 295.04 209.992 294.176L231.016 282.008C232.528 281.144 234.76 281.072 236.056 281.792L290.92 313.472C292.216 314.192 292.072 315.488 290.56 316.352L269.536 328.52C268.024 329.384 265.792 329.456 264.496 328.736Z" fill="white" stroke="url(#paint15_linear)" stroke-width="0.5"/>
</g>
<path fill-rule="evenodd" clip-rule="evenodd" d="M99.0277 260.569L133.468 246.46L119.214 280.828L112.919 270.553L102.645 282.275L97.5082 277.065L109.229 266.863L99.0277 260.569Z" fill="white"/>
<path d="M133.468 246.46L99.0276 260.569L109.229 266.864L97.5082 277.065L102.645 282.275L112.919 270.554L119.142 280.828L133.468 246.46ZM135.494 244.506L134.481 246.894L120.155 281.262L119.359 283.215L118.274 281.406L112.775 272.435L103.514 282.998L102.718 283.866L101.922 283.071L96.7847 277.861L95.9888 277.065L96.8571 276.269L107.493 267.081L98.5212 261.509L96.7124 260.352L98.6659 259.556L133.034 245.447L135.494 244.506Z" fill="black"/>
<defs>
<linearGradient id="paint0_linear" x1="211.872" y1="157.458" x2="137.694" y2="16.9167" gradientUnits="userSpaceOnUse">
<stop stop-color="#803EEE"/>
<stop offset="0.475248" stop-color="#53A0FD"/>
<stop offset="1" stop-color="#00D7C2"/>
</linearGradient>
<linearGradient id="paint1_linear" x1="160.031" y1="100.852" x2="81.4329" y2="61.1689" gradientUnits="userSpaceOnUse">
<stop stop-color="#803EEE"/>
<stop offset="0.475248" stop-color="#53A0FD"/>
<stop offset="1" stop-color="#00D7C2"/>
</linearGradient>
<linearGradient id="paint2_linear" x1="144.429" y1="3.06237" x2="143.785" y2="-0.986802" gradientUnits="userSpaceOnUse">
<stop stop-color="#803EEE"/>
<stop offset="0.475248" stop-color="#53A0FD"/>
<stop offset="1" stop-color="#00D7C2"/>
</linearGradient>
<linearGradient id="paint3_linear" x1="75.2751" y1="208.766" x2="41.5777" y2="145.208" gradientUnits="userSpaceOnUse">
<stop stop-color="#803EEE"/>
<stop offset="0.475248" stop-color="#53A0FD"/>
<stop offset="1" stop-color="#00D7C2"/>
</linearGradient>
<linearGradient id="paint4_linear" x1="75.2751" y1="202.766" x2="41.5777" y2="139.208" gradientUnits="userSpaceOnUse">
<stop stop-color="#803EEE"/>
<stop offset="0.475248" stop-color="#53A0FD"/>
<stop offset="1" stop-color="#00D7C2"/>
</linearGradient>
<linearGradient id="paint5_linear" x1="154.991" y1="192.973" x2="339.003" y2="192.973" gradientUnits="userSpaceOnUse">
<stop stop-color="#56F6F7"/>
<stop offset="1" stop-color="#9327F5"/>
</linearGradient>
<linearGradient id="paint6_linear" x1="320.015" y1="219.672" x2="245.837" y2="79.1307" gradientUnits="userSpaceOnUse">
<stop stop-color="#803EEE"/>
<stop offset="0.475248" stop-color="#53A0FD"/>
<stop offset="1" stop-color="#00D7C2"/>
</linearGradient>
<linearGradient id="paint7_linear" x1="182.275" y1="270.766" x2="148.578" y2="207.208" gradientUnits="userSpaceOnUse">
<stop stop-color="#803EEE"/>
<stop offset="0.475248" stop-color="#53A0FD"/>
<stop offset="0.703046" stop-color="#47A5FD"/>
<stop offset="1" stop-color="#38ABFE"/>
</linearGradient>
<linearGradient id="paint8_linear" x1="279.203" y1="112.174" x2="198.056" y2="124.94" gradientUnits="userSpaceOnUse">
<stop stop-color="#38ABFE"/>
<stop offset="0.1776" stop-color="#38ABFE"/>
<stop offset="0.5563" stop-color="#4C7ADD"/>
<stop offset="1" stop-color="#9327F5"/>
</linearGradient>
<linearGradient id="paint9_linear" x1="261.707" y1="114.154" x2="169.147" y2="116.21" gradientUnits="userSpaceOnUse">
<stop offset="0.00124199" stop-color="#9327F5" stop-opacity="0"/>
<stop offset="0.2064" stop-color="#7A25E1" stop-opacity="0.2055"/>
<stop offset="0.6402" stop-color="#3A20AE" stop-opacity="0.6398"/>
<stop offset="1" stop-color="#001B80"/>
</linearGradient>
<linearGradient id="paint10_linear" x1="269.715" y1="81.0255" x2="221.165" y2="81.0255" gradientUnits="userSpaceOnUse">
<stop offset="0.2027" stop-color="#001B80" stop-opacity="0.8"/>
<stop offset="0.2964" stop-color="#1D1D97" stop-opacity="0.7882"/>
<stop offset="0.4525" stop-color="#4721B9" stop-opacity="0.7686"/>
<stop offset="0.6046" stop-color="#6823D3" stop-opacity="0.7495"/>
<stop offset="0.7495" stop-color="#8025E6" stop-opacity="0.7313"/>
<stop offset="0.8843" stop-color="#8E27F1" stop-opacity="0.7144"/>
<stop offset="0.9988" stop-color="#9327F5" stop-opacity="0.7"/>
</linearGradient>
<linearGradient id="paint11_linear" x1="276.376" y1="347.283" x2="338.7" y2="145.565" gradientUnits="userSpaceOnUse">
<stop stop-color="#00D4C3"/>
<stop offset="1" stop-color="#9327F5"/>
</linearGradient>
<linearGradient id="paint12_linear" x1="329.564" y1="293.436" x2="424.574" y2="173.772" gradientUnits="userSpaceOnUse">
<stop stop-color="#00D4C3"/>
<stop offset="1" stop-color="#9327F5"/>
</linearGradient>
<linearGradient id="paint13_linear" x1="332.486" y1="166.162" x2="333.328" y2="152.832" gradientUnits="userSpaceOnUse">
<stop stop-color="#00D4C3"/>
<stop offset="1" stop-color="#9327F5"/>
</linearGradient>
<linearGradient id="paint14_linear" x1="213.779" y1="357.346" x2="241.877" y2="266.353" gradientUnits="userSpaceOnUse">
<stop stop-color="#00D4C3"/>
<stop offset="1" stop-color="#9327F5"/>
</linearGradient>
<linearGradient id="paint15_linear" x1="213.691" y1="351.711" x2="241.823" y2="260.659" gradientUnits="userSpaceOnUse">
<stop stop-color="#00D4C3"/>
<stop offset="1" stop-color="#9327F5"/>
</linearGradient>
</defs>
</svg>
