<svg width="216" height="206" viewBox="0 0 216 206" fill="none" xmlns="http://www.w3.org/2000/svg">
<rect x="37.0504" y="0.800391" width="141.787" height="185.962" rx="3.24082" stroke="#797979" stroke-width="1.425"/>
<path d="M97.4633 195.285V201.75H96.1665V197.545L94.4344 201.75H93.4526L91.7113 197.545V201.75H90.4145V195.285H91.8872L93.9435 200.092L95.9998 195.285H97.4633ZM101.024 201.833C100.53 201.833 100.085 201.725 99.6901 201.509C99.2949 201.287 98.9831 200.975 98.7546 200.574C98.5323 200.172 98.4211 199.709 98.4211 199.184C98.4211 198.659 98.5354 198.196 98.7639 197.795C98.9985 197.394 99.3165 197.085 99.7179 196.869C100.119 196.646 100.567 196.535 101.061 196.535C101.555 196.535 102.003 196.646 102.404 196.869C102.805 197.085 103.12 197.394 103.349 197.795C103.583 198.196 103.701 198.659 103.701 199.184C103.701 199.709 103.58 200.172 103.34 200.574C103.105 200.975 102.784 201.287 102.376 201.509C101.975 201.725 101.524 201.833 101.024 201.833ZM101.024 200.703C101.259 200.703 101.478 200.648 101.682 200.537C101.891 200.419 102.058 200.246 102.182 200.018C102.305 199.789 102.367 199.512 102.367 199.184C102.367 198.696 102.237 198.323 101.978 198.064C101.725 197.798 101.413 197.665 101.042 197.665C100.672 197.665 100.36 197.798 100.107 198.064C99.8599 198.323 99.7364 198.696 99.7364 199.184C99.7364 199.672 99.8568 200.049 100.098 200.314C100.345 200.574 100.653 200.703 101.024 200.703ZM104.319 199.166C104.319 198.647 104.42 198.187 104.624 197.786C104.834 197.384 105.118 197.076 105.476 196.859C105.834 196.643 106.233 196.535 106.671 196.535C107.005 196.535 107.323 196.609 107.625 196.758C107.928 196.9 108.169 197.091 108.348 197.332V194.896H109.663V201.75H108.348V200.99C108.187 201.244 107.962 201.447 107.672 201.602C107.381 201.756 107.045 201.833 106.662 201.833C106.23 201.833 105.834 201.722 105.476 201.5C105.118 201.278 104.834 200.966 104.624 200.564C104.42 200.157 104.319 199.691 104.319 199.166ZM108.357 199.184C108.357 198.869 108.295 198.601 108.172 198.378C108.048 198.15 107.882 197.977 107.672 197.86C107.462 197.736 107.236 197.674 106.995 197.674C106.755 197.674 106.532 197.733 106.328 197.85C106.125 197.968 105.958 198.141 105.828 198.369C105.705 198.591 105.643 198.857 105.643 199.166C105.643 199.475 105.705 199.746 105.828 199.981C105.958 200.209 106.125 200.385 106.328 200.509C106.538 200.632 106.761 200.694 106.995 200.694C107.236 200.694 107.462 200.635 107.672 200.518C107.882 200.395 108.048 200.222 108.172 199.999C108.295 199.771 108.357 199.499 108.357 199.184ZM115.7 199.073C115.7 199.258 115.687 199.425 115.663 199.573H111.911C111.942 199.944 112.072 200.234 112.3 200.444C112.529 200.654 112.81 200.759 113.143 200.759C113.625 200.759 113.968 200.552 114.171 200.138H115.57C115.422 200.632 115.138 201.04 114.718 201.361C114.298 201.676 113.782 201.833 113.171 201.833C112.677 201.833 112.232 201.725 111.837 201.509C111.448 201.287 111.143 200.975 110.92 200.574C110.704 200.172 110.596 199.709 110.596 199.184C110.596 198.653 110.704 198.187 110.92 197.786C111.136 197.384 111.439 197.076 111.828 196.859C112.217 196.643 112.665 196.535 113.171 196.535C113.659 196.535 114.094 196.64 114.477 196.85C114.866 197.06 115.166 197.36 115.375 197.749C115.592 198.131 115.7 198.573 115.7 199.073ZM114.357 198.703C114.35 198.369 114.23 198.104 113.995 197.906C113.761 197.702 113.474 197.6 113.134 197.6C112.813 197.6 112.541 197.699 112.319 197.897C112.103 198.088 111.97 198.357 111.921 198.703H114.357ZM117.943 197.415C118.11 197.143 118.326 196.93 118.591 196.776C118.863 196.622 119.172 196.544 119.518 196.544V197.906H119.175C118.767 197.906 118.459 198.002 118.249 198.193C118.045 198.385 117.943 198.718 117.943 199.194V201.75H116.646V196.619H117.943V197.415ZM123.235 196.544C123.846 196.544 124.34 196.739 124.717 197.128C125.093 197.511 125.282 198.048 125.282 198.74V201.75H123.985V198.916C123.985 198.508 123.883 198.196 123.679 197.98C123.475 197.758 123.198 197.647 122.846 197.647C122.487 197.647 122.203 197.758 121.993 197.98C121.79 198.196 121.688 198.508 121.688 198.916V201.75H120.391V196.619H121.688V197.258C121.861 197.035 122.08 196.862 122.345 196.739C122.617 196.609 122.913 196.544 123.235 196.544Z" fill="#333333"/>
<rect x="42.3563" y="7.35625" width="129.288" height="49.2875" rx="3.20625" stroke="#797979" stroke-width="0.7125" stroke-linejoin="round" stroke-dasharray="3.56 3.56"/>
<rect x="42.0371" y="72.7627" width="73.3875" height="2.1375" rx="1.06875" fill="#A1A1A1"/>
<rect x="152.475" y="72.7627" width="17.8125" height="2.1375" rx="1.06875" fill="#A1A1A1"/>
<rect x="152.475" y="87.0127" width="17.8125" height="2.1375" rx="1.06875" fill="#A1A1A1"/>
<rect x="156.037" y="91.2871" width="14.25" height="2.1375" rx="1.06875" fill="#A1A1A1"/>
<rect x="152.475" y="94.8496" width="17.8125" height="2.1375" rx="1.06875" fill="#A1A1A1"/>
<rect x="152.475" y="98.4121" width="17.8125" height="2.1375" rx="1.06875" fill="#A1A1A1"/>
<rect x="163.162" y="101.975" width="7.125" height="2.1375" rx="1.06875" fill="#A1A1A1"/>
<rect x="150.338" y="110.525" width="19.95" height="2.1375" rx="1.06875" fill="#A1A1A1"/>
<rect x="159.6" y="114.088" width="10.6875" height="2.1375" rx="1.06875" fill="#A1A1A1"/>
<rect x="150.338" y="123.35" width="19.95" height="2.1375" rx="1.06875" fill="#A1A1A1"/>
<rect x="159.6" y="126.912" width="10.6875" height="2.1375" rx="1.06875" fill="#A1A1A1"/>
<rect x="150.338" y="134.037" width="19.95" height="2.1375" rx="1.06875" fill="#A1A1A1"/>
<rect x="159.6" y="137.6" width="10.6875" height="2.1375" rx="1.06875" fill="#A1A1A1"/>
<rect x="140.363" y="77.75" width="29.925" height="4.9875" rx="2.1375" fill="#A1A1A1"/>
<rect x="42.0371" y="77.75" width="54.8625" height="2.1375" rx="1.06875" fill="#A1A1A1"/>
<rect x="44.8867" y="89.1504" width="18.525" height="2.1375" rx="1.06875" fill="#A1A1A1"/>
<rect x="44.8867" y="96.9873" width="18.525" height="2.1375" rx="1.06875" fill="#A1A1A1"/>
<rect x="44.8867" y="101.975" width="18.525" height="2.1375" rx="1.06875" fill="#A1A1A1"/>
<rect x="44.8867" y="109.812" width="18.525" height="2.1375" rx="1.06875" fill="#A1A1A1"/>
<rect x="83.3633" y="89.1504" width="11.4" height="2.1375" rx="1.06875" fill="#A1A1A1"/>
<rect x="83.3633" y="96.9873" width="11.4" height="2.1375" rx="1.06875" fill="#A1A1A1"/>
<rect x="83.3633" y="109.812" width="11.4" height="2.1375" rx="1.06875" fill="#A1A1A1"/>
<rect x="99.75" y="89.1504" width="4.9875" height="2.1375" rx="1.06875" fill="#A1A1A1"/>
<rect x="99.75" y="96.9873" width="4.9875" height="2.1375" rx="1.06875" fill="#A1A1A1"/>
<rect x="99.75" y="109.812" width="4.9875" height="2.1375" rx="1.06875" fill="#A1A1A1"/>
<rect x="109.725" y="89.1504" width="10.6875" height="2.1375" rx="1.06875" fill="#A1A1A1"/>
<rect x="109.725" y="96.9873" width="10.6875" height="2.1375" rx="1.06875" fill="#A1A1A1"/>
<rect x="94.7617" y="138.312" width="9.975" height="2.1375" rx="1.06875" fill="#A1A1A1"/>
<rect x="109.725" y="138.312" width="10.6875" height="2.1375" rx="1.06875" fill="#A1A1A1"/>
<rect x="98.3242" y="144.725" width="6.4125" height="2.1375" rx="1.06875" fill="#A1A1A1"/>
<rect x="44.8867" y="166.1" width="8.55" height="2.1375" rx="1.06875" fill="#A1A1A1"/>
<rect x="44.8867" y="171.088" width="59.85" height="2.1375" rx="1.06875" fill="#A1A1A1"/>
<rect x="109.725" y="144.725" width="10.6875" height="2.1375" rx="1.06875" fill="#A1A1A1"/>
<rect x="98.3242" y="151.138" width="6.4125" height="2.1375" rx="1.06875" fill="#A1A1A1"/>
<rect x="109.725" y="151.138" width="10.6875" height="2.1375" rx="1.06875" fill="#A1A1A1"/>
<rect x="109.725" y="109.812" width="10.6875" height="2.1375" rx="1.06875" fill="#A1A1A1"/>
<path d="M4.18487 93.4249L12.2327 85.3758C12.6597 84.9494 12.6597 84.2572 12.2327 83.8302L11.46 83.0573C11.0332 82.6306 10.3414 82.6306 9.91456 83.0573L0.320006 92.6522C-0.106669 93.0789 -0.106669 93.7708 0.320006 94.1978L9.91456 103.792C10.3414 104.219 11.0332 104.219 11.46 103.792L12.2327 103.019C12.6597 102.592 12.6597 101.9 12.2327 101.474L4.18487 93.4249Z" fill="#797979"/>
<path d="M211.368 93.4249L203.32 85.3758C202.893 84.9494 202.893 84.2572 203.32 83.8302L204.093 83.0573C204.52 82.6306 205.211 82.6306 205.638 83.0573L215.233 92.6522C215.659 93.0789 215.659 93.7708 215.233 94.1978L205.638 103.792C205.211 104.219 204.52 104.219 204.093 103.792L203.32 103.019C202.893 102.592 202.893 101.9 203.32 101.474L211.368 93.4249Z" fill="#797979"/>
</svg>
